<svg width="960" height="335" viewBox="0 0 960 335" fill="none" xmlns="http://www.w3.org/2000/svg">
<rect width="960" height="335" fill="#F4F4F4"/>
<path d="M73.36 89.4111C70.08 89.4111 67.4533 88.4511 65.48 86.5311C63.5333 84.5844 62.56 81.7444 62.56 78.0111V71.6911C62.56 67.9577 63.5333 65.1311 65.48 63.2111C67.4533 61.2644 70.08 60.2911 73.36 60.2911C76.6133 60.2911 79.0933 61.2111 80.8 63.0511C82.5333 64.8644 83.4 67.3444 83.4 70.4911V70.6911H80.84V70.4111C80.84 68.1177 80.2267 66.2511 79 64.8111C77.8 63.3444 75.92 62.6111 73.36 62.6111C70.7733 62.6111 68.7467 63.3977 67.28 64.9711C65.84 66.5444 65.12 68.7577 65.12 71.6111V78.0911C65.12 80.9444 65.84 83.1577 67.28 84.7311C68.7467 86.3044 70.7733 87.0911 73.36 87.0911C75.92 87.0911 77.8 86.3711 79 84.9311C80.2267 83.4644 80.84 81.5844 80.84 79.2911V78.6911H83.4V79.2111C83.4 82.3577 82.5333 84.8511 80.8 86.6911C79.0933 88.5044 76.6133 89.4111 73.36 89.4111ZM98.025 89.4111C96.0517 89.4111 94.3183 88.9977 92.825 88.1711C91.3583 87.3177 90.2117 86.1444 89.385 84.6511C88.585 83.1311 88.185 81.3711 88.185 79.3711V78.8911C88.185 76.8911 88.585 75.1444 89.385 73.6511C90.2117 72.1311 91.3583 70.9577 92.825 70.1311C94.3183 69.2777 96.0517 68.8511 98.025 68.8511C99.9983 68.8511 101.718 69.2777 103.185 70.1311C104.678 70.9577 105.825 72.1311 106.625 73.6511C107.452 75.1444 107.865 76.8911 107.865 78.8911V79.3711C107.865 81.3711 107.452 83.1311 106.625 84.6511C105.825 86.1444 104.678 87.3177 103.185 88.1711C101.718 88.9977 99.9983 89.4111 98.025 89.4111ZM98.025 87.2511C100.318 87.2511 102.132 86.5311 103.465 85.0911C104.798 83.6244 105.465 81.6911 105.465 79.2911V78.9711C105.465 76.5711 104.798 74.6511 103.465 73.2111C102.132 71.7444 100.318 71.0111 98.025 71.0111C95.7583 71.0111 93.945 71.7444 92.585 73.2111C91.2517 74.6511 90.585 76.5711 90.585 78.9711V79.2911C90.585 81.6911 91.2517 83.6244 92.585 85.0911C93.945 86.5311 95.7583 87.2511 98.025 87.2511ZM113.95 88.8511V69.4111H116.27V73.0111H116.75C117.23 71.9711 118.016 71.0511 119.11 70.2511C120.203 69.4244 121.79 69.0111 123.87 69.0111C125.283 69.0111 126.576 69.3044 127.75 69.8911C128.923 70.4777 129.856 71.3711 130.55 72.5711C131.27 73.7444 131.63 75.2244 131.63 77.0111V88.8511H129.23V77.1711C129.23 75.0377 128.696 73.5044 127.63 72.5711C126.563 71.6377 125.136 71.1711 123.35 71.1711C121.35 71.1711 119.683 71.8377 118.35 73.1711C117.016 74.4777 116.35 76.4644 116.35 79.1311V88.8511H113.95ZM144.935 88.8511C143.895 88.8511 143.108 88.5844 142.575 88.0511C142.068 87.5177 141.815 86.7711 141.815 85.8111V71.5711H135.575V69.4111H141.815V62.1311H144.215V69.4111H151.015V71.5711H144.215V85.4911C144.215 86.2911 144.615 86.6911 145.415 86.6911H149.975V88.8511H144.935ZM162.175 89.4111C160.815 89.4111 159.575 89.1844 158.455 88.7311C157.362 88.2511 156.495 87.5577 155.855 86.6511C155.215 85.7444 154.895 84.6511 154.895 83.3711C154.895 82.0644 155.215 80.9844 155.855 80.1311C156.495 79.2777 157.362 78.6377 158.455 78.2111C159.549 77.7844 160.762 77.5711 162.095 77.5711H169.215V76.0111C169.215 74.4377 168.762 73.2111 167.855 72.3311C166.949 71.4511 165.629 71.0111 163.895 71.0111C162.189 71.0111 160.829 71.4377 159.815 72.2911C158.829 73.1177 158.162 74.2377 157.815 75.6511L155.495 74.9711C155.815 73.8244 156.322 72.7977 157.015 71.8911C157.709 70.9577 158.629 70.2244 159.775 69.6911C160.922 69.1311 162.295 68.8511 163.895 68.8511C166.349 68.8511 168.242 69.4911 169.575 70.7711C170.935 72.0511 171.615 73.8377 171.615 76.1311V85.5711C171.615 86.3711 171.989 86.7711 172.735 86.7711H174.615V88.8511H172.055C171.229 88.8511 170.575 88.6111 170.095 88.1311C169.615 87.6244 169.375 86.9444 169.375 86.0911V85.8111H168.975C168.629 86.3977 168.175 86.9711 167.615 87.5311C167.082 88.0911 166.375 88.5444 165.495 88.8911C164.615 89.2377 163.509 89.4111 162.175 89.4111ZM162.335 87.2511C164.389 87.2511 166.042 86.6377 167.295 85.4111C168.575 84.1577 169.215 82.3977 169.215 80.1311V79.6511H162.135C160.749 79.6511 159.589 79.9577 158.655 80.5711C157.749 81.1577 157.295 82.0777 157.295 83.3311C157.295 84.5844 157.762 85.5577 158.695 86.2511C159.655 86.9177 160.869 87.2511 162.335 87.2511ZM187.478 89.4111C185.585 89.4111 183.891 89.0111 182.398 88.2111C180.931 87.3844 179.771 86.2111 178.918 84.6911C178.065 83.1711 177.638 81.3844 177.638 79.3311V78.9311C177.638 76.8511 178.065 75.0644 178.918 73.5711C179.771 72.0511 180.931 70.8911 182.398 70.0911C183.891 69.2644 185.585 68.8511 187.478 68.8511C189.345 68.8511 190.918 69.2111 192.198 69.9311C193.505 70.6244 194.518 71.5444 195.238 72.6911C195.985 73.8111 196.451 74.9977 196.638 76.2511L194.278 76.7311C194.145 75.6911 193.811 74.7444 193.278 73.8911C192.745 73.0111 191.998 72.3177 191.038 71.8111C190.078 71.2777 188.891 71.0111 187.478 71.0111C186.065 71.0111 184.798 71.3444 183.678 72.0111C182.558 72.6511 181.665 73.5711 180.998 74.7711C180.358 75.9444 180.038 77.3444 180.038 78.9711V79.2911C180.038 80.9177 180.358 82.3311 180.998 83.5311C181.665 84.7044 182.558 85.6244 183.678 86.2911C184.798 86.9311 186.065 87.2511 187.478 87.2511C189.611 87.2511 191.238 86.7044 192.358 85.6111C193.478 84.4911 194.171 83.1311 194.438 81.5311L196.798 82.0111C196.558 83.2644 196.051 84.4644 195.278 85.6111C194.531 86.7311 193.505 87.6511 192.198 88.3711C190.918 89.0644 189.345 89.4111 187.478 89.4111ZM208.88 88.8511C207.84 88.8511 207.054 88.5844 206.52 88.0511C206.014 87.5177 205.76 86.7711 205.76 85.8111V71.5711H199.52V69.4111H205.76V62.1311H208.16V69.4111H214.96V71.5711H208.16V85.4911C208.16 86.2911 208.56 86.6911 209.36 86.6911H213.92V88.8511H208.88Z" fill="black"/>
<path d="M60 93.8511H216.8V95.8511H60V93.8511Z" fill="black"/>
<path d="M62.64 159.61V138.61H64.44V147.58H64.8C65.04 147.1 65.37 146.65 65.79 146.23C66.23 145.79 66.79 145.44 67.47 145.18C68.17 144.9 69.04 144.76 70.08 144.76C71.14 144.76 72.11 144.98 72.99 145.42C73.87 145.86 74.57 146.52 75.09 147.4C75.63 148.28 75.9 149.39 75.9 150.73V159.61H74.1V150.85C74.1 149.25 73.7 148.11 72.9 147.43C72.1 146.73 71.03 146.38 69.69 146.38C68.19 146.38 66.94 146.87 65.94 147.85C64.94 148.83 64.44 150.32 64.44 152.32V159.61H62.64ZM85.4791 160.03C84.4591 160.03 83.5291 159.86 82.6891 159.52C81.8691 159.16 81.2191 158.64 80.7391 157.96C80.2591 157.28 80.0191 156.46 80.0191 155.5C80.0191 154.52 80.2591 153.71 80.7391 153.07C81.2191 152.43 81.8691 151.95 82.6891 151.63C83.5091 151.31 84.4191 151.15 85.4191 151.15H90.7591V149.98C90.7591 148.8 90.4191 147.88 89.7391 147.22C89.0591 146.56 88.0691 146.23 86.7691 146.23C85.4891 146.23 84.4691 146.55 83.7091 147.19C82.9691 147.81 82.4691 148.65 82.2091 149.71L80.4691 149.2C80.7091 148.34 81.0891 147.57 81.6091 146.89C82.1291 146.19 82.8191 145.64 83.6791 145.24C84.5391 144.82 85.5691 144.61 86.7691 144.61C88.6091 144.61 90.0291 145.09 91.0291 146.05C92.0491 147.01 92.5591 148.35 92.5591 150.07V157.15C92.5591 157.75 92.8391 158.05 93.3991 158.05H94.8091V159.61H92.8891C92.2691 159.61 91.7791 159.43 91.4191 159.07C91.0591 158.69 90.8791 158.18 90.8791 157.54V157.33H90.5791C90.3191 157.77 89.9791 158.2 89.5591 158.62C89.1591 159.04 88.6291 159.38 87.9691 159.64C87.3091 159.9 86.4791 160.03 85.4791 160.03ZM85.5991 158.41C87.1391 158.41 88.3791 157.95 89.3191 157.03C90.2791 156.09 90.7591 154.77 90.7591 153.07V152.71H85.4491C84.4091 152.71 83.5391 152.94 82.8391 153.4C82.1591 153.84 81.8191 154.53 81.8191 155.47C81.8191 156.41 82.1691 157.14 82.8691 157.66C83.5891 158.16 84.4991 158.41 85.5991 158.41ZM102.607 159.61C101.828 159.61 101.238 159.41 100.838 159.01C100.458 158.61 100.268 158.05 100.268 157.33V146.65H95.5875V145.03H100.268V139.57H102.068V145.03H107.168V146.65H102.068V157.09C102.068 157.69 102.368 157.99 102.968 157.99H106.388V159.61H102.607ZM117.318 160.03C115.898 160.03 114.628 159.73 113.508 159.13C112.408 158.51 111.538 157.63 110.898 156.49C110.258 155.35 109.938 154.01 109.938 152.47V152.17C109.938 150.61 110.258 149.27 110.898 148.15C111.538 147.01 112.408 146.14 113.508 145.54C114.628 144.92 115.898 144.61 117.318 144.61C118.718 144.61 119.898 144.88 120.858 145.42C121.838 145.94 122.598 146.63 123.138 147.49C123.698 148.33 124.048 149.22 124.188 150.16L122.418 150.52C122.318 149.74 122.068 149.03 121.668 148.39C121.268 147.73 120.708 147.21 119.988 146.83C119.268 146.43 118.378 146.23 117.318 146.23C116.258 146.23 115.308 146.48 114.468 146.98C113.628 147.46 112.958 148.15 112.458 149.05C111.978 149.93 111.738 150.98 111.738 152.2V152.44C111.738 153.66 111.978 154.72 112.458 155.62C112.958 156.5 113.628 157.19 114.468 157.69C115.308 158.17 116.258 158.41 117.318 158.41C118.918 158.41 120.138 158 120.978 157.18C121.818 156.34 122.338 155.32 122.538 154.12L124.308 154.48C124.128 155.42 123.748 156.32 123.168 157.18C122.608 158.02 121.838 158.71 120.858 159.25C119.898 159.77 118.718 160.03 117.318 160.03ZM128.734 159.61V138.61H130.534V147.58H130.894C131.134 147.1 131.464 146.65 131.884 146.23C132.324 145.79 132.884 145.44 133.564 145.18C134.264 144.9 135.134 144.76 136.174 144.76C137.234 144.76 138.204 144.98 139.084 145.42C139.964 145.86 140.664 146.52 141.184 147.4C141.724 148.28 141.994 149.39 141.994 150.73V159.61H140.194V150.85C140.194 149.25 139.794 148.11 138.994 147.43C138.194 146.73 137.124 146.38 135.784 146.38C134.284 146.38 133.034 146.87 132.034 147.85C131.034 148.83 130.534 150.32 130.534 152.32V159.61H128.734ZM153.823 160.03C152.323 160.03 151.013 159.72 149.893 159.1C148.793 158.46 147.933 157.57 147.313 156.43C146.693 155.29 146.383 153.98 146.383 152.5V152.14C146.383 150.64 146.693 149.33 147.313 148.21C147.933 147.07 148.783 146.19 149.863 145.57C150.963 144.93 152.213 144.61 153.613 144.61C154.973 144.61 156.173 144.9 157.213 145.48C158.273 146.04 159.103 146.86 159.703 147.94C160.303 149 160.603 150.27 160.603 151.75V152.71H148.183C148.243 154.53 148.793 155.94 149.833 156.94C150.893 157.92 152.223 158.41 153.823 158.41C155.183 158.41 156.233 158.1 156.973 157.48C157.733 156.86 158.313 156.1 158.713 155.2L160.333 155.92C160.033 156.58 159.613 157.23 159.073 157.87C158.553 158.49 157.873 159.01 157.033 159.43C156.193 159.83 155.123 160.03 153.823 160.03ZM148.213 151.15H158.773C158.693 149.57 158.183 148.36 157.243 147.52C156.303 146.66 155.093 146.23 153.613 146.23C152.153 146.23 150.943 146.66 149.983 147.52C149.023 148.36 148.433 149.57 148.213 151.15ZM169.668 159.61C168.888 159.61 168.298 159.41 167.898 159.01C167.518 158.61 167.328 158.05 167.328 157.33V146.65H162.648V145.03H167.328V139.57H169.128V145.03H174.228V146.65H169.128V157.09C169.128 157.69 169.428 157.99 170.028 157.99H173.448V159.61H169.668ZM184.378 160.03C182.958 160.03 181.688 159.73 180.568 159.13C179.468 158.51 178.598 157.63 177.958 156.49C177.318 155.35 176.998 154.01 176.998 152.47V152.17C176.998 150.61 177.318 149.27 177.958 148.15C178.598 147.01 179.468 146.14 180.568 145.54C181.688 144.92 182.958 144.61 184.378 144.61C185.778 144.61 186.958 144.88 187.918 145.42C188.898 145.94 189.658 146.63 190.198 147.49C190.758 148.33 191.108 149.22 191.248 150.16L189.478 150.52C189.378 149.74 189.128 149.03 188.728 148.39C188.328 147.73 187.768 147.21 187.048 146.83C186.328 146.43 185.438 146.23 184.378 146.23C183.318 146.23 182.368 146.48 181.528 146.98C180.688 147.46 180.018 148.15 179.518 149.05C179.038 149.93 178.798 150.98 178.798 152.2V152.44C178.798 153.66 179.038 154.72 179.518 155.62C180.018 156.5 180.688 157.19 181.528 157.69C182.368 158.17 183.318 158.41 184.378 158.41C185.978 158.41 187.198 158 188.038 157.18C188.878 156.34 189.398 155.32 189.598 154.12L191.368 154.48C191.188 155.42 190.808 156.32 190.228 157.18C189.668 158.02 188.898 158.71 187.918 159.25C186.958 159.77 185.778 160.03 184.378 160.03ZM195.794 159.61V138.61H197.594V147.58H197.954C198.194 147.1 198.524 146.65 198.944 146.23C199.384 145.79 199.944 145.44 200.624 145.18C201.324 144.9 202.194 144.76 203.234 144.76C204.294 144.76 205.264 144.98 206.144 145.42C207.024 145.86 207.724 146.52 208.244 147.4C208.784 148.28 209.054 149.39 209.054 150.73V159.61H207.254V150.85C207.254 149.25 206.854 148.11 206.054 147.43C205.254 146.73 204.184 146.38 202.844 146.38C201.344 146.38 200.094 146.87 199.094 147.85C198.094 148.83 197.594 150.32 197.594 152.32V159.61H195.794ZM218.633 160.03C217.613 160.03 216.683 159.86 215.843 159.52C215.023 159.16 214.373 158.64 213.893 157.96C213.413 157.28 213.173 156.46 213.173 155.5C213.173 154.52 213.413 153.71 213.893 153.07C214.373 152.43 215.023 151.95 215.843 151.63C216.663 151.31 217.573 151.15 218.573 151.15H223.913V149.98C223.913 148.8 223.573 147.88 222.893 147.22C222.213 146.56 221.223 146.23 219.923 146.23C218.643 146.23 217.623 146.55 216.863 147.19C216.123 147.81 215.623 148.65 215.363 149.71L213.623 149.2C213.863 148.34 214.243 147.57 214.763 146.89C215.283 146.19 215.973 145.64 216.833 145.24C217.693 144.82 218.723 144.61 219.923 144.61C221.763 144.61 223.183 145.09 224.183 146.05C225.203 147.01 225.713 148.35 225.713 150.07V157.15C225.713 157.75 225.993 158.05 226.553 158.05H227.963V159.61H226.043C225.423 159.61 224.933 159.43 224.573 159.07C224.213 158.69 224.033 158.18 224.033 157.54V157.33H223.733C223.473 157.77 223.133 158.2 222.713 158.62C222.313 159.04 221.783 159.38 221.123 159.64C220.463 159.9 219.633 160.03 218.633 160.03ZM218.753 158.41C220.293 158.41 221.533 157.95 222.473 157.03C223.433 156.09 223.913 154.77 223.913 153.07V152.71H218.603C217.563 152.71 216.693 152.94 215.993 153.4C215.313 153.84 214.973 154.53 214.973 155.47C214.973 156.41 215.323 157.14 216.023 157.66C216.743 158.16 217.653 158.41 218.753 158.41ZM236.648 159.91C235.608 159.91 234.638 159.69 233.738 159.25C232.858 158.81 232.148 158.15 231.608 157.27C231.088 156.37 230.828 155.25 230.828 153.91V145.03H232.628V153.79C232.628 155.37 233.028 156.52 233.828 157.24C234.628 157.94 235.698 158.29 237.038 158.29C238.538 158.29 239.788 157.8 240.788 156.82C241.788 155.82 242.288 154.32 242.288 152.32V145.03H244.088V159.61H242.348V156.91H241.988C241.628 157.69 241.038 158.39 240.218 159.01C239.398 159.61 238.208 159.91 236.648 159.91ZM249.378 159.61V145.03H251.118V147.73H251.478C251.838 146.95 252.428 146.26 253.248 145.66C254.068 145.04 255.258 144.73 256.818 144.73C257.878 144.73 258.848 144.95 259.728 145.39C260.608 145.83 261.308 146.5 261.828 147.4C262.368 148.28 262.638 149.39 262.638 150.73V159.61H260.838V150.85C260.838 149.25 260.438 148.1 259.638 147.4C258.838 146.7 257.768 146.35 256.428 146.35C254.928 146.35 253.678 146.85 252.678 147.85C251.678 148.83 251.178 150.32 251.178 152.32V159.61H249.378ZM267.027 152.38V152.02C267.027 150.48 267.337 149.16 267.957 148.06C268.597 146.96 269.447 146.11 270.507 145.51C271.567 144.91 272.747 144.61 274.047 144.61C275.647 144.61 276.887 144.93 277.767 145.57C278.667 146.19 279.327 146.9 279.747 147.7H280.107V145.03H281.787V163.33C281.787 164.05 281.597 164.61 281.217 165.01C280.837 165.41 280.257 165.61 279.477 165.61H269.517V163.99H279.117C279.737 163.99 280.047 163.69 280.047 163.09V156.82H279.687C279.427 157.3 279.057 157.77 278.577 158.23C278.117 158.69 277.517 159.07 276.777 159.37C276.037 159.65 275.127 159.79 274.047 159.79C272.747 159.79 271.557 159.49 270.477 158.89C269.417 158.29 268.577 157.44 267.957 156.34C267.337 155.22 267.027 153.9 267.027 152.38ZM274.467 158.17C276.127 158.17 277.467 157.65 278.487 156.61C279.527 155.57 280.047 154.14 280.047 152.32V152.08C280.047 150.24 279.527 148.81 278.487 147.79C277.467 146.75 276.127 146.23 274.467 146.23C272.827 146.23 271.487 146.75 270.447 147.79C269.407 148.81 268.887 150.24 268.887 152.08V152.32C268.887 154.14 269.407 155.57 270.447 156.61C271.487 157.65 272.827 158.17 274.467 158.17ZM300.464 165.61C297.864 165.61 295.534 165.1 293.474 164.08C291.434 163.06 289.824 161.57 288.644 159.61C287.464 157.65 286.874 155.25 286.874 152.41V151.81C286.874 148.97 287.424 146.57 288.524 144.61C289.624 142.65 291.154 141.16 293.114 140.14C295.074 139.12 297.324 138.61 299.864 138.61H300.464C302.944 138.61 305.124 139.11 307.004 140.11C308.884 141.09 310.354 142.51 311.414 144.37C312.474 146.23 313.004 148.47 313.004 151.09V151.66C313.004 154.38 312.524 156.39 311.564 157.69C310.624 158.97 309.304 159.61 307.604 159.61H306.914C306.154 159.61 305.574 159.43 305.174 159.07C304.794 158.71 304.604 158.22 304.604 157.6V157.21H304.244C304.064 157.63 303.794 158.06 303.434 158.5C303.074 158.92 302.574 159.28 301.934 159.58C301.314 159.88 300.504 160.03 299.504 160.03C298.344 160.03 297.284 159.72 296.324 159.1C295.384 158.46 294.634 157.59 294.074 156.49C293.534 155.37 293.264 154.11 293.264 152.71V152.17C293.264 150.75 293.534 149.49 294.074 148.39C294.634 147.29 295.384 146.43 296.324 145.81C297.264 145.17 298.314 144.85 299.474 144.85C300.454 144.85 301.254 144.99 301.874 145.27C302.494 145.55 302.984 145.9 303.344 146.32C303.704 146.72 303.984 147.12 304.184 147.52H304.544V145.27H306.284V157.36C306.284 157.62 306.334 157.8 306.434 157.9C306.554 158 306.734 158.05 306.974 158.05H307.424C308.784 158.05 309.754 157.55 310.334 156.55C310.914 155.55 311.204 153.86 311.204 151.48V151.15C311.204 148.81 310.754 146.83 309.854 145.21C308.974 143.59 307.734 142.36 306.134 141.52C304.534 140.66 302.644 140.23 300.464 140.23H299.924C297.684 140.23 295.714 140.67 294.014 141.55C292.334 142.41 291.024 143.71 290.084 145.45C289.144 147.17 288.674 149.31 288.674 151.87V152.35C288.674 154.91 289.174 157.06 290.174 158.8C291.194 160.52 292.594 161.81 294.374 162.67C296.174 163.55 298.224 163.99 300.524 163.99H306.284V165.61H300.464ZM299.804 158.38C301.184 158.38 302.314 157.87 303.194 156.85C304.094 155.83 304.544 154.41 304.544 152.59V152.29C304.544 150.47 304.094 149.05 303.194 148.03C302.314 147.01 301.184 146.5 299.804 146.5C298.424 146.5 297.284 147.02 296.384 148.06C295.504 149.1 295.064 150.5 295.064 152.26V152.62C295.064 154.38 295.504 155.78 296.384 156.82C297.284 157.86 298.424 158.38 299.804 158.38ZM317.272 152.38V152.02C317.272 150.48 317.582 149.16 318.202 148.06C318.842 146.96 319.692 146.11 320.752 145.51C321.812 144.91 322.992 144.61 324.292 144.61C325.892 144.61 327.132 144.93 328.012 145.57C328.912 146.19 329.572 146.9 329.992 147.7H330.352V145.03H332.032V163.33C332.032 164.05 331.842 164.61 331.462 165.01C331.082 165.41 330.502 165.61 329.722 165.61H319.762V163.99H329.362C329.982 163.99 330.292 163.69 330.292 163.09V156.82H329.932C329.672 157.3 329.302 157.77 328.822 158.23C328.362 158.69 327.762 159.07 327.022 159.37C326.282 159.65 325.372 159.79 324.292 159.79C322.992 159.79 321.802 159.49 320.722 158.89C319.662 158.29 318.822 157.44 318.202 156.34C317.582 155.22 317.272 153.9 317.272 152.38ZM324.712 158.17C326.372 158.17 327.712 157.65 328.732 156.61C329.772 155.57 330.292 154.14 330.292 152.32V152.08C330.292 150.24 329.772 148.81 328.732 147.79C327.712 146.75 326.372 146.23 324.712 146.23C323.072 146.23 321.732 146.75 320.692 147.79C319.652 148.81 319.132 150.24 319.132 152.08V152.32C319.132 154.14 319.652 155.57 320.692 156.61C321.732 157.65 323.072 158.17 324.712 158.17ZM337.298 159.61V145.03H339.038V146.95H339.398C339.698 146.41 340.178 145.91 340.838 145.45C341.498 144.97 342.438 144.73 343.658 144.73C344.838 144.73 345.788 145 346.508 145.54C347.248 146.08 347.778 146.73 348.098 147.49H348.458C348.798 146.73 349.328 146.08 350.048 145.54C350.768 145 351.778 144.73 353.078 144.73C354.078 144.73 354.948 144.94 355.688 145.36C356.428 145.76 357.008 146.33 357.428 147.07C357.848 147.79 358.058 148.64 358.058 149.62V159.61H356.258V149.8C356.258 148.76 355.938 147.93 355.298 147.31C354.678 146.67 353.798 146.35 352.658 146.35C351.498 146.35 350.528 146.73 349.748 147.49C348.968 148.23 348.578 149.32 348.578 150.76V159.61H346.778V149.8C346.778 148.76 346.458 147.93 345.818 147.31C345.198 146.67 344.318 146.35 343.178 146.35C342.018 146.35 341.048 146.73 340.268 147.49C339.488 148.23 339.098 149.32 339.098 150.76V159.61H337.298ZM367.637 160.03C366.617 160.03 365.687 159.86 364.847 159.52C364.027 159.16 363.377 158.64 362.897 157.96C362.417 157.28 362.177 156.46 362.177 155.5C362.177 154.52 362.417 153.71 362.897 153.07C363.377 152.43 364.027 151.95 364.847 151.63C365.667 151.31 366.577 151.15 367.577 151.15H372.917V149.98C372.917 148.8 372.577 147.88 371.897 147.22C371.217 146.56 370.227 146.23 368.927 146.23C367.647 146.23 366.627 146.55 365.867 147.19C365.127 147.81 364.627 148.65 364.367 149.71L362.627 149.2C362.867 148.34 363.247 147.57 363.767 146.89C364.287 146.19 364.977 145.64 365.837 145.24C366.697 144.82 367.727 144.61 368.927 144.61C370.767 144.61 372.187 145.09 373.187 146.05C374.207 147.01 374.717 148.35 374.717 150.07V157.15C374.717 157.75 374.997 158.05 375.557 158.05H376.967V159.61H375.047C374.427 159.61 373.937 159.43 373.577 159.07C373.217 158.69 373.037 158.18 373.037 157.54V157.33H372.737C372.477 157.77 372.137 158.2 371.717 158.62C371.317 159.04 370.787 159.38 370.127 159.64C369.467 159.9 368.637 160.03 367.637 160.03ZM367.757 158.41C369.297 158.41 370.537 157.95 371.477 157.03C372.437 156.09 372.917 154.77 372.917 153.07V152.71H367.607C366.567 152.71 365.697 152.94 364.997 153.4C364.317 153.84 363.977 154.53 363.977 155.47C363.977 156.41 364.327 157.14 365.027 157.66C365.747 158.16 366.657 158.41 367.757 158.41ZM380.394 159.61V145.03H382.194V159.61H380.394ZM381.294 142.51C380.854 142.51 380.484 142.36 380.184 142.06C379.884 141.76 379.734 141.39 379.734 140.95C379.734 140.49 379.884 140.12 380.184 139.84C380.484 139.54 380.854 139.39 381.294 139.39C381.754 139.39 382.124 139.54 382.404 139.84C382.704 140.12 382.854 140.49 382.854 140.95C382.854 141.39 382.704 141.76 382.404 142.06C382.124 142.36 381.754 142.51 381.294 142.51ZM387.484 159.61V138.61H389.284V159.61H387.484ZM395.444 160.03C394.944 160.03 394.534 159.87 394.214 159.55C393.894 159.23 393.734 158.82 393.734 158.32C393.734 157.82 393.894 157.41 394.214 157.09C394.534 156.77 394.944 156.61 395.444 156.61C395.944 156.61 396.354 156.77 396.674 157.09C396.994 157.41 397.154 157.82 397.154 158.32C397.154 158.82 396.994 159.23 396.674 159.55C396.354 159.87 395.944 160.03 395.444 160.03ZM408.03 160.03C406.61 160.03 405.34 159.73 404.22 159.13C403.12 158.51 402.25 157.63 401.61 156.49C400.97 155.35 400.65 154.01 400.65 152.47V152.17C400.65 150.61 400.97 149.27 401.61 148.15C402.25 147.01 403.12 146.14 404.22 145.54C405.34 144.92 406.61 144.61 408.03 144.61C409.43 144.61 410.61 144.88 411.57 145.42C412.55 145.94 413.31 146.63 413.85 147.49C414.41 148.33 414.76 149.22 414.9 150.16L413.13 150.52C413.03 149.74 412.78 149.03 412.38 148.39C411.98 147.73 411.42 147.21 410.7 146.83C409.98 146.43 409.09 146.23 408.03 146.23C406.97 146.23 406.02 146.48 405.18 146.98C404.34 147.46 403.67 148.15 403.17 149.05C402.69 149.93 402.45 150.98 402.45 152.2V152.44C402.45 153.66 402.69 154.72 403.17 155.62C403.67 156.5 404.34 157.19 405.18 157.69C406.02 158.17 406.97 158.41 408.03 158.41C409.63 158.41 410.85 158 411.69 157.18C412.53 156.34 413.05 155.32 413.25 154.12L415.02 154.48C414.84 155.42 414.46 156.32 413.88 157.18C413.32 158.02 412.55 158.71 411.57 159.25C410.61 159.77 409.43 160.03 408.03 160.03ZM426.107 160.03C424.627 160.03 423.327 159.72 422.207 159.1C421.107 158.46 420.247 157.58 419.627 156.46C419.027 155.32 418.727 154 418.727 152.5V152.14C418.727 150.64 419.027 149.33 419.627 148.21C420.247 147.07 421.107 146.19 422.207 145.57C423.327 144.93 424.627 144.61 426.107 144.61C427.587 144.61 428.877 144.93 429.977 145.57C431.097 146.19 431.957 147.07 432.557 148.21C433.177 149.33 433.487 150.64 433.487 152.14V152.5C433.487 154 433.177 155.32 432.557 156.46C431.957 157.58 431.097 158.46 429.977 159.1C428.877 159.72 427.587 160.03 426.107 160.03ZM426.107 158.41C427.827 158.41 429.187 157.87 430.187 156.79C431.187 155.69 431.687 154.24 431.687 152.44V152.2C431.687 150.4 431.187 148.96 430.187 147.88C429.187 146.78 427.827 146.23 426.107 146.23C424.407 146.23 423.047 146.78 422.027 147.88C421.027 148.96 420.527 150.4 420.527 152.2V152.44C420.527 154.24 421.027 155.69 422.027 156.79C423.047 157.87 424.407 158.41 426.107 158.41ZM438.05 159.61V145.03H439.79V146.95H440.15C440.45 146.41 440.93 145.91 441.59 145.45C442.25 144.97 443.19 144.73 444.41 144.73C445.59 144.73 446.54 145 447.26 145.54C448 146.08 448.53 146.73 448.85 147.49H449.21C449.55 146.73 450.08 146.08 450.8 145.54C451.52 145 452.53 144.73 453.83 144.73C454.83 144.73 455.7 144.94 456.44 145.36C457.18 145.76 457.76 146.33 458.18 147.07C458.6 147.79 458.81 148.64 458.81 149.62V159.61H457.01V149.8C457.01 148.76 456.69 147.93 456.05 147.31C455.43 146.67 454.55 146.35 453.41 146.35C452.25 146.35 451.28 146.73 450.5 147.49C449.72 148.23 449.33 149.32 449.33 150.76V159.61H447.53V149.8C447.53 148.76 447.21 147.93 446.57 147.31C445.95 146.67 445.07 146.35 443.93 146.35C442.77 146.35 441.8 146.73 441.02 147.49C440.24 148.23 439.85 149.32 439.85 150.76V159.61H438.05ZM69.57 218.03C67.21 218.03 65.34 217.32 63.96 215.9C62.6 214.46 61.92 212.33 61.92 209.51V204.71C61.92 201.89 62.6 199.77 63.96 198.35C65.34 196.91 67.21 196.19 69.57 196.19C71.93 196.19 73.79 196.91 75.15 198.35C76.53 199.77 77.22 201.89 77.22 204.71V209.51C77.22 212.33 76.53 214.46 75.15 215.9C73.79 217.32 71.93 218.03 69.57 218.03ZM69.57 216.35C71.49 216.35 72.93 215.76 73.89 214.58C74.87 213.38 75.36 211.73 75.36 209.63V204.59C75.36 202.49 74.87 200.85 73.89 199.67C72.93 198.47 71.49 197.87 69.57 197.87C67.65 197.87 66.2 198.47 65.22 199.67C64.26 200.85 63.78 202.49 63.78 204.59V209.63C63.78 211.73 64.26 213.38 65.22 214.58C66.2 215.76 67.65 216.35 69.57 216.35ZM88.1009 218.03C86.5609 218.03 85.2609 217.75 84.2009 217.19C83.1409 216.63 82.3409 215.88 81.8009 214.94C81.2609 213.98 80.9909 212.92 80.9909 211.76H82.8509C82.8509 213.14 83.3009 214.25 84.2009 215.09C85.1009 215.93 86.4009 216.35 88.1009 216.35C89.8809 216.35 91.2509 215.87 92.2109 214.91C93.1709 213.93 93.6509 212.59 93.6509 210.89V207.68H93.2909C92.9109 208.36 92.2709 208.99 91.3709 209.57C90.4909 210.13 89.2709 210.41 87.7109 210.41C86.4309 210.41 85.2609 210.13 84.2009 209.57C83.1609 208.99 82.3309 208.18 81.7109 207.14C81.1109 206.1 80.8109 204.88 80.8109 203.48V203.12C80.8109 201.68 81.1309 200.45 81.7709 199.43C82.4309 198.39 83.3109 197.59 84.4109 197.03C85.5309 196.47 86.7809 196.19 88.1609 196.19C89.5609 196.19 90.8109 196.47 91.9109 197.03C93.0109 197.59 93.8809 198.4 94.5209 199.46C95.1809 200.5 95.5109 201.77 95.5109 203.27V210.68C95.5109 212.18 95.2209 213.48 94.6409 214.58C94.0609 215.68 93.2109 216.53 92.0909 217.13C90.9909 217.73 89.6609 218.03 88.1009 218.03ZM88.1609 208.79C89.2409 208.79 90.1909 208.57 91.0109 208.13C91.8309 207.67 92.4709 207.04 92.9309 206.24C93.4109 205.42 93.6509 204.47 93.6509 203.39V203.15C93.6509 201.51 93.1409 200.22 92.1209 199.28C91.1009 198.34 89.7809 197.87 88.1609 197.87C86.5409 197.87 85.2209 198.34 84.2009 199.28C83.1809 200.22 82.6709 201.51 82.6709 203.15V203.39C82.6709 204.47 82.9009 205.42 83.3609 206.24C83.8409 207.04 84.4909 207.67 85.3109 208.13C86.1309 208.57 87.0809 208.79 88.1609 208.79ZM106.711 218.03C105.331 218.03 104.081 217.75 102.961 217.19C101.861 216.63 100.981 215.82 100.321 214.76C99.6814 213.7 99.3614 212.43 99.3614 210.95V203.54C99.3614 202.02 99.6514 200.72 100.231 199.64C100.831 198.54 101.681 197.69 102.781 197.09C103.881 196.49 105.211 196.19 106.771 196.19C108.311 196.19 109.611 196.47 110.671 197.03C111.731 197.59 112.531 198.34 113.071 199.28C113.611 200.22 113.881 201.28 113.881 202.46H112.021C112.021 201.08 111.571 199.97 110.671 199.13C109.791 198.29 108.491 197.87 106.771 197.87C105.011 197.87 103.641 198.36 102.661 199.34C101.701 200.3 101.221 201.63 101.221 203.33V206.54H101.581C101.961 205.86 102.591 205.24 103.471 204.68C104.371 204.1 105.601 203.81 107.161 203.81C108.461 203.81 109.631 204.1 110.671 204.68C111.711 205.24 112.531 206.04 113.131 207.08C113.751 208.1 114.061 209.32 114.061 210.74V211.1C114.061 212.52 113.731 213.75 113.071 214.79C112.431 215.83 111.551 216.63 110.431 217.19C109.331 217.75 108.091 218.03 106.711 218.03ZM106.711 216.35C108.331 216.35 109.651 215.88 110.671 214.94C111.691 214 112.201 212.71 112.201 211.07V210.83C112.201 209.73 111.961 208.78 111.481 207.98C111.021 207.18 110.381 206.56 109.561 206.12C108.741 205.66 107.791 205.43 106.711 205.43C105.631 205.43 104.681 205.66 103.861 206.12C103.041 206.56 102.391 207.18 101.911 207.98C101.451 208.78 101.221 209.73 101.221 210.83V211.07C101.221 212.71 101.731 214 102.751 214.94C103.771 215.88 105.091 216.35 106.711 216.35ZM124.782 218.03C123.302 218.03 122.012 217.74 120.912 217.16C119.812 216.56 118.952 215.74 118.332 214.7C117.732 213.64 117.432 212.42 117.432 211.04V210.65H119.292V210.95C119.292 212.75 119.802 214.1 120.822 215C121.842 215.9 123.152 216.35 124.752 216.35C126.472 216.35 127.812 215.86 128.772 214.88C129.752 213.9 130.242 212.54 130.242 210.8V210.56C130.242 208.9 129.772 207.58 128.832 206.6C127.912 205.62 126.692 205.13 125.172 205.13C124.292 205.13 123.562 205.28 122.982 205.58C122.402 205.86 121.942 206.21 121.602 206.63C121.282 207.03 121.022 207.42 120.822 207.8H118.062V196.61H131.622V198.29H119.922V206.42H120.282C120.502 205.96 120.822 205.51 121.242 205.07C121.662 204.63 122.222 204.26 122.922 203.96C123.642 203.66 124.532 203.51 125.592 203.51C126.812 203.51 127.912 203.8 128.892 204.38C129.872 204.94 130.652 205.75 131.232 206.81C131.812 207.85 132.102 209.09 132.102 210.53V210.83C132.102 212.23 131.802 213.47 131.202 214.55C130.622 215.63 129.782 216.48 128.682 217.1C127.602 217.72 126.302 218.03 124.782 218.03ZM136.202 210.71V209.03H145.082V210.71H136.202ZM159.838 217.61V213.29H148.618V211.07L158.098 196.61H161.698V211.61H165.358V213.29H161.698V217.61H159.838ZM150.568 211.61H159.838V197.69H159.478L150.568 211.31V211.61ZM175.771 218.03C173.411 218.03 171.541 217.32 170.161 215.9C168.801 214.46 168.121 212.33 168.121 209.51V204.71C168.121 201.89 168.801 199.77 170.161 198.35C171.541 196.91 173.411 196.19 175.771 196.19C178.131 196.19 179.991 196.91 181.351 198.35C182.731 199.77 183.421 201.89 183.421 204.71V209.51C183.421 212.33 182.731 214.46 181.351 215.9C179.991 217.32 178.131 218.03 175.771 218.03ZM175.771 216.35C177.691 216.35 179.131 215.76 180.091 214.58C181.071 213.38 181.561 211.73 181.561 209.63V204.59C181.561 202.49 181.071 200.85 180.091 199.67C179.131 198.47 177.691 197.87 175.771 197.87C173.851 197.87 172.401 198.47 171.421 199.67C170.461 200.85 169.981 202.49 169.981 204.59V209.63C169.981 211.73 170.461 213.38 171.421 214.58C172.401 215.76 173.851 216.35 175.771 216.35ZM194.362 218.03C192.882 218.03 191.592 217.74 190.492 217.16C189.392 216.56 188.532 215.74 187.912 214.7C187.312 213.64 187.012 212.42 187.012 211.04V210.65H188.872V210.95C188.872 212.75 189.382 214.1 190.402 215C191.422 215.9 192.732 216.35 194.332 216.35C196.052 216.35 197.392 215.86 198.352 214.88C199.332 213.9 199.822 212.54 199.822 210.8V210.56C199.822 208.9 199.352 207.58 198.412 206.6C197.492 205.62 196.272 205.13 194.752 205.13C193.872 205.13 193.142 205.28 192.562 205.58C191.982 205.86 191.522 206.21 191.182 206.63C190.862 207.03 190.602 207.42 190.402 207.8H187.642V196.61H201.202V198.29H189.502V206.42H189.862C190.082 205.96 190.402 205.51 190.822 205.07C191.242 204.63 191.802 204.26 192.502 203.96C193.222 203.66 194.112 203.51 195.172 203.51C196.392 203.51 197.492 203.8 198.472 204.38C199.452 204.94 200.232 205.75 200.812 206.81C201.392 207.85 201.682 209.09 201.682 210.53V210.83C201.682 212.23 201.382 213.47 200.782 214.55C200.202 215.63 199.362 216.48 198.262 217.1C197.182 217.72 195.882 218.03 194.362 218.03ZM205.782 210.71V209.03H214.662V210.71H205.782ZM226.268 218.03C224.808 218.03 223.498 217.75 222.338 217.19C221.198 216.63 220.298 215.82 219.638 214.76C218.998 213.68 218.678 212.38 218.678 210.86V210.29H220.538V210.89C220.538 212.59 221.068 213.93 222.128 214.91C223.188 215.87 224.568 216.35 226.268 216.35C227.988 216.35 229.328 215.89 230.288 214.97C231.248 214.05 231.728 212.89 231.728 211.49V211.31C231.728 210.27 231.478 209.43 230.978 208.79C230.498 208.15 229.838 207.68 228.998 207.38C228.178 207.06 227.268 206.9 226.268 206.9H223.178V204.38L231.698 198.59V198.29H219.158V196.61H233.558V199.31L225.128 205.04V205.34H226.778C228.078 205.34 229.238 205.57 230.258 206.03C231.278 206.47 232.088 207.13 232.688 208.01C233.288 208.87 233.588 209.95 233.588 211.25V211.55C233.588 212.85 233.288 213.99 232.688 214.97C232.088 215.93 231.238 216.68 230.138 217.22C229.038 217.76 227.748 218.03 226.268 218.03ZM244.524 218.03C243.144 218.03 241.894 217.75 240.774 217.19C239.674 216.63 238.794 215.82 238.134 214.76C237.494 213.7 237.174 212.43 237.174 210.95V203.54C237.174 202.02 237.464 200.72 238.044 199.64C238.644 198.54 239.494 197.69 240.594 197.09C241.694 196.49 243.024 196.19 244.584 196.19C246.124 196.19 247.424 196.47 248.484 197.03C249.544 197.59 250.344 198.34 250.884 199.28C251.424 200.22 251.694 201.28 251.694 202.46H249.834C249.834 201.08 249.384 199.97 248.484 199.13C247.604 198.29 246.304 197.87 244.584 197.87C242.824 197.87 241.454 198.36 240.474 199.34C239.514 200.3 239.034 201.63 239.034 203.33V206.54H239.394C239.774 205.86 240.404 205.24 241.284 204.68C242.184 204.1 243.414 203.81 244.974 203.81C246.274 203.81 247.444 204.1 248.484 204.68C249.524 205.24 250.344 206.04 250.944 207.08C251.564 208.1 251.874 209.32 251.874 210.74V211.1C251.874 212.52 251.544 213.75 250.884 214.79C250.244 215.83 249.364 216.63 248.244 217.19C247.144 217.75 245.904 218.03 244.524 218.03ZM244.524 216.35C246.144 216.35 247.464 215.88 248.484 214.94C249.504 214 250.014 212.71 250.014 211.07V210.83C250.014 209.73 249.774 208.78 249.294 207.98C248.834 207.18 248.194 206.56 247.374 206.12C246.554 205.66 245.604 205.43 244.524 205.43C243.444 205.43 242.494 205.66 241.674 206.12C240.854 206.56 240.204 207.18 239.724 207.98C239.264 208.78 239.034 209.73 239.034 210.83V211.07C239.034 212.71 239.544 214 240.564 214.94C241.584 215.88 242.904 216.35 244.524 216.35ZM262.594 218.03C261.114 218.03 259.824 217.74 258.724 217.16C257.624 216.56 256.764 215.74 256.144 214.7C255.544 213.64 255.244 212.42 255.244 211.04V210.65H257.104V210.95C257.104 212.75 257.614 214.1 258.634 215C259.654 215.9 260.964 216.35 262.564 216.35C264.284 216.35 265.624 215.86 266.584 214.88C267.564 213.9 268.054 212.54 268.054 210.8V210.56C268.054 208.9 267.584 207.58 266.644 206.6C265.724 205.62 264.504 205.13 262.984 205.13C262.104 205.13 261.374 205.28 260.794 205.58C260.214 205.86 259.754 206.21 259.414 206.63C259.094 207.03 258.834 207.42 258.634 207.8H255.874V196.61H269.434V198.29H257.734V206.42H258.094C258.314 205.96 258.634 205.51 259.054 205.07C259.474 204.63 260.034 204.26 260.734 203.96C261.454 203.66 262.344 203.51 263.404 203.51C264.624 203.51 265.724 203.8 266.704 204.38C267.684 204.94 268.464 205.75 269.044 206.81C269.624 207.85 269.914 209.09 269.914 210.53V210.83C269.914 212.23 269.614 213.47 269.014 214.55C268.434 215.63 267.594 216.48 266.494 217.1C265.414 217.72 264.114 218.03 262.594 218.03ZM76.05 281.61C73.45 281.61 71.12 281.1 69.06 280.08C67.02 279.06 65.41 277.57 64.23 275.61C63.05 273.65 62.46 271.25 62.46 268.41V267.81C62.46 264.97 63.01 262.57 64.11 260.61C65.21 258.65 66.74 257.16 68.7 256.14C70.66 255.12 72.91 254.61 75.45 254.61H76.05C78.53 254.61 80.71 255.11 82.59 256.11C84.47 257.09 85.94 258.51 87 260.37C88.06 262.23 88.59 264.47 88.59 267.09V267.66C88.59 270.38 88.11 272.39 87.15 273.69C86.21 274.97 84.89 275.61 83.19 275.61H82.5C81.74 275.61 81.16 275.43 80.76 275.07C80.38 274.71 80.19 274.22 80.19 273.6V273.21H79.83C79.65 273.63 79.38 274.06 79.02 274.5C78.66 274.92 78.16 275.28 77.52 275.58C76.9 275.88 76.09 276.03 75.09 276.03C73.93 276.03 72.87 275.72 71.91 275.1C70.97 274.46 70.22 273.59 69.66 272.49C69.12 271.37 68.85 270.11 68.85 268.71V268.17C68.85 266.75 69.12 265.49 69.66 264.39C70.22 263.29 70.97 262.43 71.91 261.81C72.85 261.17 73.9 260.85 75.06 260.85C76.04 260.85 76.84 260.99 77.46 261.27C78.08 261.55 78.57 261.9 78.93 262.32C79.29 262.72 79.57 263.12 79.77 263.52H80.13V261.27H81.87V273.36C81.87 273.62 81.92 273.8 82.02 273.9C82.14 274 82.32 274.05 82.56 274.05H83.01C84.37 274.05 85.34 273.55 85.92 272.55C86.5 271.55 86.79 269.86 86.79 267.48V267.15C86.79 264.81 86.34 262.83 85.44 261.21C84.56 259.59 83.32 258.36 81.72 257.52C80.12 256.66 78.23 256.23 76.05 256.23H75.51C73.27 256.23 71.3 256.67 69.6 257.55C67.92 258.41 66.61 259.71 65.67 261.45C64.73 263.17 64.26 265.31 64.26 267.87V268.35C64.26 270.91 64.76 273.06 65.76 274.8C66.78 276.52 68.18 277.81 69.96 278.67C71.76 279.55 73.81 279.99 76.11 279.99H81.87V281.61H76.05ZM75.39 274.38C76.77 274.38 77.9 273.87 78.78 272.85C79.68 271.83 80.13 270.41 80.13 268.59V268.29C80.13 266.47 79.68 265.05 78.78 264.03C77.9 263.01 76.77 262.5 75.39 262.5C74.01 262.5 72.87 263.02 71.97 264.06C71.09 265.1 70.65 266.5 70.65 268.26V268.62C70.65 270.38 71.09 271.78 71.97 272.82C72.87 273.86 74.01 274.38 75.39 274.38ZM91.7775 275.61L98.6475 254.61H102.068L108.938 275.61H106.928L105.128 270.03H95.5875L93.7875 275.61H91.7775ZM96.1275 268.29H104.588L100.538 255.75H100.178L96.1275 268.29ZM112.235 278.79V277.11H125.915V278.79H112.235ZM131.019 275.61V261.03H132.759V262.95H133.119C133.419 262.41 133.899 261.91 134.559 261.45C135.219 260.97 136.159 260.73 137.379 260.73C138.559 260.73 139.509 261 140.229 261.54C140.969 262.08 141.499 262.73 141.819 263.49H142.179C142.519 262.73 143.049 262.08 143.769 261.54C144.489 261 145.499 260.73 146.799 260.73C147.799 260.73 148.669 260.94 149.409 261.36C150.149 261.76 150.729 262.33 151.149 263.07C151.569 263.79 151.779 264.64 151.779 265.62V275.61H149.979V265.8C149.979 264.76 149.659 263.93 149.019 263.31C148.399 262.67 147.519 262.35 146.379 262.35C145.219 262.35 144.249 262.73 143.469 263.49C142.689 264.23 142.299 265.32 142.299 266.76V275.61H140.499V265.8C140.499 264.76 140.179 263.93 139.539 263.31C138.919 262.67 138.039 262.35 136.899 262.35C135.739 262.35 134.769 262.73 133.989 263.49C133.209 264.23 132.819 265.32 132.819 266.76V275.61H131.019ZM163.608 276.03C162.108 276.03 160.798 275.72 159.678 275.1C158.578 274.46 157.718 273.57 157.098 272.43C156.478 271.29 156.168 269.98 156.168 268.5V268.14C156.168 266.64 156.478 265.33 157.098 264.21C157.718 263.07 158.568 262.19 159.648 261.57C160.748 260.93 161.998 260.61 163.398 260.61C164.758 260.61 165.958 260.9 166.998 261.48C168.058 262.04 168.888 262.86 169.488 263.94C170.088 265 170.388 266.27 170.388 267.75V268.71H157.968C158.028 270.53 158.578 271.94 159.618 272.94C160.678 273.92 162.008 274.41 163.608 274.41C164.968 274.41 166.018 274.1 166.758 273.48C167.518 272.86 168.098 272.1 168.498 271.2L170.118 271.92C169.818 272.58 169.398 273.23 168.858 273.87C168.338 274.49 167.658 275.01 166.818 275.43C165.978 275.83 164.908 276.03 163.608 276.03ZM157.998 267.15H168.558C168.478 265.57 167.968 264.36 167.028 263.52C166.088 262.66 164.878 262.23 163.398 262.23C161.938 262.23 160.728 262.66 159.768 263.52C158.808 264.36 158.218 265.57 157.998 267.15ZM174.818 275.61V261.03H176.618V275.61H174.818ZM175.718 258.51C175.278 258.51 174.908 258.36 174.608 258.06C174.308 257.76 174.158 257.39 174.158 256.95C174.158 256.49 174.308 256.12 174.608 255.84C174.908 255.54 175.278 255.39 175.718 255.39C176.178 255.39 176.548 255.54 176.828 255.84C177.128 256.12 177.278 256.49 177.278 256.95C177.278 257.39 177.128 257.76 176.828 258.06C176.548 258.36 176.178 258.51 175.718 258.51ZM182.778 276.03C182.278 276.03 181.868 275.87 181.548 275.55C181.228 275.23 181.068 274.82 181.068 274.32C181.068 273.82 181.228 273.41 181.548 273.09C181.868 272.77 182.278 272.61 182.778 272.61C183.278 272.61 183.688 272.77 184.008 273.09C184.328 273.41 184.488 273.82 184.488 274.32C184.488 274.82 184.328 275.23 184.008 275.55C183.688 275.87 183.278 276.03 182.778 276.03ZM195.269 276.03C193.729 276.03 192.429 275.75 191.369 275.19C190.309 274.63 189.509 273.88 188.969 272.94C188.429 271.98 188.159 270.92 188.159 269.76H190.019C190.019 271.14 190.469 272.25 191.369 273.09C192.269 273.93 193.569 274.35 195.269 274.35C197.049 274.35 198.419 273.87 199.379 272.91C200.339 271.93 200.819 270.59 200.819 268.89V265.68H200.459C200.079 266.36 199.439 266.99 198.539 267.57C197.659 268.13 196.439 268.41 194.879 268.41C193.599 268.41 192.429 268.13 191.369 267.57C190.329 266.99 189.499 266.18 188.879 265.14C188.279 264.1 187.979 262.88 187.979 261.48V261.12C187.979 259.68 188.299 258.45 188.939 257.43C189.599 256.39 190.479 255.59 191.579 255.03C192.699 254.47 193.949 254.19 195.329 254.19C196.729 254.19 197.979 254.47 199.079 255.03C200.179 255.59 201.049 256.4 201.689 257.46C202.349 258.5 202.679 259.77 202.679 261.27V268.68C202.679 270.18 202.389 271.48 201.809 272.58C201.229 273.68 200.379 274.53 199.259 275.13C198.159 275.73 196.829 276.03 195.269 276.03ZM195.329 266.79C196.409 266.79 197.359 266.57 198.179 266.13C198.999 265.67 199.639 265.04 200.099 264.24C200.579 263.42 200.819 262.47 200.819 261.39V261.15C200.819 259.51 200.309 258.22 199.289 257.28C198.269 256.34 196.949 255.87 195.329 255.87C193.709 255.87 192.389 256.34 191.369 257.28C190.349 258.22 189.839 259.51 189.839 261.15V261.39C189.839 262.47 190.069 263.42 190.529 264.24C191.009 265.04 191.659 265.67 192.479 266.13C193.299 266.57 194.249 266.79 195.329 266.79ZM213.579 276.03C212.039 276.03 210.739 275.75 209.679 275.19C208.619 274.63 207.819 273.88 207.279 272.94C206.739 271.98 206.469 270.92 206.469 269.76H208.329C208.329 271.14 208.779 272.25 209.679 273.09C210.579 273.93 211.879 274.35 213.579 274.35C215.359 274.35 216.729 273.87 217.689 272.91C218.649 271.93 219.129 270.59 219.129 268.89V265.68H218.769C218.389 266.36 217.749 266.99 216.849 267.57C215.969 268.13 214.749 268.41 213.189 268.41C211.909 268.41 210.739 268.13 209.679 267.57C208.639 266.99 207.809 266.18 207.189 265.14C206.589 264.1 206.289 262.88 206.289 261.48V261.12C206.289 259.68 206.609 258.45 207.249 257.43C207.909 256.39 208.789 255.59 209.889 255.03C211.009 254.47 212.259 254.19 213.639 254.19C215.039 254.19 216.289 254.47 217.389 255.03C218.489 255.59 219.359 256.4 219.999 257.46C220.659 258.5 220.989 259.77 220.989 261.27V268.68C220.989 270.18 220.699 271.48 220.119 272.58C219.539 273.68 218.689 274.53 217.569 275.13C216.469 275.73 215.139 276.03 213.579 276.03ZM213.639 266.79C214.719 266.79 215.669 266.57 216.489 266.13C217.309 265.67 217.949 265.04 218.409 264.24C218.889 263.42 219.129 262.47 219.129 261.39V261.15C219.129 259.51 218.619 258.22 217.599 257.28C216.579 256.34 215.259 255.87 213.639 255.87C212.019 255.87 210.699 256.34 209.679 257.28C208.659 258.22 208.149 259.51 208.149 261.15V261.39C208.149 262.47 208.379 263.42 208.839 264.24C209.319 265.04 209.969 265.67 210.789 266.13C211.609 266.57 212.559 266.79 213.639 266.79Z" fill="black"/>
<path d="M743.253 87.6433C744.381 74.1147 763.23 59 789.468 59C815.706 59 837.062 79.8327 838.097 105.93C837.487 106.104 836.876 106.29 836.266 106.49C825.641 109.956 817.019 116.753 811.156 125.35C803.582 136.48 819.897 148.382 828.082 137.693C834.396 129.442 838.15 119.112 838.15 107.916C838.15 107.25 838.137 106.583 838.11 105.93C863.141 98.8128 889.498 112.821 897.603 137.892C905.708 162.95 892.602 189.808 868.221 198.871M868.221 198.871C867.863 198.338 867.505 197.818 867.12 197.285C860.541 188.182 851.428 182.037 841.453 179.105C828.586 175.319 822.378 194.579 835.019 199.098C844.782 202.59 855.726 202.99 866.351 199.524C866.974 199.324 867.611 199.098 868.221 198.871ZM868.221 198.871C882.68 220.597 877.586 250.107 856.349 265.608C835.139 281.096 805.651 276.871 789.547 256.371C789.945 255.865 790.33 255.358 790.702 254.838C797.268 245.748 800.279 235.152 799.987 224.729C799.602 211.28 779.44 211.28 779.082 224.729C778.803 235.139 781.801 245.708 788.367 254.785C788.752 255.318 789.15 255.851 789.561 256.371C773.471 276.911 743.97 281.149 722.732 265.661C701.522 250.173 696.415 220.69 710.834 198.978M710.834 198.978C711.431 199.204 712.028 199.418 712.651 199.618C723.29 203.083 734.246 202.683 744.009 199.178C756.637 194.646 750.416 175.386 737.563 179.185C727.614 182.13 718.528 188.275 711.961 197.352C711.577 197.885 711.192 198.431 710.834 198.978ZM710.834 198.978C686.427 189.914 673.281 163.03 681.399 137.959C689.504 112.901 719.164 97.32 744.421 103.091L744.619 103.131C758.72 106.224 775.712 116.86 781.827 132.308C781.827 132.308 789.508 149.009 789.508 175.266" stroke="black" stroke-width="3" stroke-miterlimit="10" stroke-linecap="round"/>
<path d="M480 0L480 335" stroke="#575757" stroke-width="0.8"/>
</svg>
