<svg width="960" height="295" viewBox="0 0 960 295" fill="none" xmlns="http://www.w3.org/2000/svg">
<rect width="960" height="295" fill="#F4F4F4"/>
<path d="M61.12 89L70.28 61H74.84L84 89H81.32L78.92 81.56H66.2L63.8 89H61.12ZM66.92 79.24H78.2L72.8 62.52H72.32L66.92 79.24ZM99.0372 89.56C96.9039 89.56 95.2372 89.1467 94.0372 88.32C92.8639 87.4667 91.9972 86.5067 91.4372 85.44H90.9572V89H88.6372V61H91.0372V72.96H91.5172C91.8639 72.2933 92.3439 71.6667 92.9572 71.08C93.5972 70.4667 94.4105 69.9733 95.3972 69.6C96.4105 69.2 97.6239 69 99.0372 69C100.797 69 102.384 69.4133 103.797 70.24C105.211 71.04 106.331 72.2 107.157 73.72C107.984 75.2133 108.397 76.9867 108.397 79.04V79.52C108.397 81.5733 107.971 83.36 107.117 84.88C106.291 86.3733 105.171 87.5333 103.757 88.36C102.344 89.16 100.771 89.56 99.0372 89.56ZM98.4772 87.4C100.691 87.4 102.477 86.6933 103.837 85.28C105.224 83.8667 105.917 81.92 105.917 79.44V79.12C105.917 76.64 105.224 74.6933 103.837 73.28C102.477 71.8667 100.691 71.16 98.4772 71.16C96.2905 71.16 94.5039 71.8667 93.1172 73.28C91.7305 74.6933 91.0372 76.64 91.0372 79.12V79.44C91.0372 81.92 91.7305 83.8667 93.1172 85.28C94.5039 86.6933 96.2905 87.4 98.4772 87.4ZM123.377 89.56C121.403 89.56 119.67 89.1467 118.177 88.32C116.71 87.4667 115.563 86.2933 114.737 84.8C113.937 83.28 113.537 81.52 113.537 79.52V79.04C113.537 77.04 113.937 75.2933 114.737 73.8C115.563 72.28 116.71 71.1067 118.177 70.28C119.67 69.4267 121.403 69 123.377 69C125.35 69 127.07 69.4267 128.537 70.28C130.03 71.1067 131.177 72.28 131.977 73.8C132.803 75.2933 133.217 77.04 133.217 79.04V79.52C133.217 81.52 132.803 83.28 131.977 84.8C131.177 86.2933 130.03 87.4667 128.537 88.32C127.07 89.1467 125.35 89.56 123.377 89.56ZM123.377 87.4C125.67 87.4 127.483 86.68 128.817 85.24C130.15 83.7733 130.817 81.84 130.817 79.44V79.12C130.817 76.72 130.15 74.8 128.817 73.36C127.483 71.8933 125.67 71.16 123.377 71.16C121.11 71.16 119.297 71.8933 117.937 73.36C116.603 74.8 115.937 76.72 115.937 79.12V79.44C115.937 81.84 116.603 83.7733 117.937 85.24C119.297 86.68 121.11 87.4 123.377 87.4ZM146.781 89.4C145.395 89.4 144.101 89.1067 142.901 88.52C141.728 87.9333 140.781 87.0533 140.061 85.88C139.368 84.68 139.021 83.1867 139.021 81.4V69.56H141.421V81.24C141.421 83.3467 141.955 84.88 143.021 85.84C144.088 86.7733 145.515 87.24 147.301 87.24C149.301 87.24 150.968 86.5867 152.301 85.28C153.635 83.9467 154.301 81.9467 154.301 79.28V69.56H156.701V89H154.381V85.4H153.901C153.421 86.44 152.635 87.3733 151.541 88.2C150.448 89 148.861 89.4 146.781 89.4ZM170.794 89C169.754 89 168.968 88.7333 168.434 88.2C167.928 87.6667 167.674 86.92 167.674 85.96V71.72H161.434V69.56H167.674V62.28H170.074V69.56H176.874V71.72H170.074V85.64C170.074 86.44 170.474 86.84 171.274 86.84H175.834V89H170.794Z" fill="black"/>
<path d="M60 94H178.714V96H60V94Z" fill="black"/>
<path d="M62.58 160V139H66.39L74.97 158.86H75.33V139H77.25V160H73.44L64.86 140.11H64.5V160H62.58ZM89.134 160.42C87.654 160.42 86.354 160.11 85.234 159.49C84.134 158.85 83.274 157.97 82.654 156.85C82.054 155.71 81.754 154.39 81.754 152.89V152.53C81.754 151.03 82.054 149.72 82.654 148.6C83.274 147.46 84.134 146.58 85.234 145.96C86.354 145.32 87.654 145 89.134 145C90.614 145 91.904 145.32 93.004 145.96C94.124 146.58 94.984 147.46 95.584 148.6C96.204 149.72 96.514 151.03 96.514 152.53V152.89C96.514 154.39 96.204 155.71 95.584 156.85C94.984 157.97 94.124 158.85 93.004 159.49C91.904 160.11 90.614 160.42 89.134 160.42ZM89.134 158.8C90.854 158.8 92.214 158.26 93.214 157.18C94.214 156.08 94.714 154.63 94.714 152.83V152.59C94.714 150.79 94.214 149.35 93.214 148.27C92.214 147.17 90.854 146.62 89.134 146.62C87.434 146.62 86.074 147.17 85.054 148.27C84.054 149.35 83.554 150.79 83.554 152.59V152.83C83.554 154.63 84.054 156.08 85.054 157.18C86.074 158.26 87.434 158.8 89.134 158.8ZM115.472 160.42C113.992 160.42 112.692 160.11 111.572 159.49C110.472 158.85 109.612 157.97 108.992 156.85C108.392 155.71 108.092 154.39 108.092 152.89V152.53C108.092 151.03 108.392 149.72 108.992 148.6C109.612 147.46 110.472 146.58 111.572 145.96C112.692 145.32 113.992 145 115.472 145C116.952 145 118.242 145.32 119.342 145.96C120.462 146.58 121.322 147.46 121.922 148.6C122.542 149.72 122.852 151.03 122.852 152.53V152.89C122.852 154.39 122.542 155.71 121.922 156.85C121.322 157.97 120.462 158.85 119.342 159.49C118.242 160.11 116.952 160.42 115.472 160.42ZM115.472 158.8C117.192 158.8 118.552 158.26 119.552 157.18C120.552 156.08 121.052 154.63 121.052 152.83V152.59C121.052 150.79 120.552 149.35 119.552 148.27C118.552 147.17 117.192 146.62 115.472 146.62C113.772 146.62 112.412 147.17 111.392 148.27C110.392 149.35 109.892 150.79 109.892 152.59V152.83C109.892 154.63 110.392 156.08 111.392 157.18C112.412 158.26 113.772 158.8 115.472 158.8ZM127.415 160V145.42H129.155V148.12H129.515C129.875 147.34 130.465 146.65 131.285 146.05C132.105 145.43 133.295 145.12 134.855 145.12C135.915 145.12 136.885 145.34 137.765 145.78C138.645 146.22 139.345 146.89 139.865 147.79C140.405 148.67 140.675 149.78 140.675 151.12V160H138.875V151.24C138.875 149.64 138.475 148.49 137.675 147.79C136.875 147.09 135.805 146.74 134.465 146.74C132.965 146.74 131.715 147.24 130.715 148.24C129.715 149.22 129.215 150.71 129.215 152.71V160H127.415ZM152.505 160.42C151.005 160.42 149.695 160.11 148.575 159.49C147.475 158.85 146.615 157.96 145.995 156.82C145.375 155.68 145.065 154.37 145.065 152.89V152.53C145.065 151.03 145.375 149.72 145.995 148.6C146.615 147.46 147.465 146.58 148.545 145.96C149.645 145.32 150.895 145 152.295 145C153.655 145 154.855 145.29 155.895 145.87C156.955 146.43 157.785 147.25 158.385 148.33C158.985 149.39 159.285 150.66 159.285 152.14V153.1H146.865C146.925 154.92 147.475 156.33 148.515 157.33C149.575 158.31 150.905 158.8 152.505 158.8C153.865 158.8 154.915 158.49 155.655 157.87C156.415 157.25 156.995 156.49 157.395 155.59L159.015 156.31C158.715 156.97 158.295 157.62 157.755 158.26C157.235 158.88 156.555 159.4 155.715 159.82C154.875 160.22 153.805 160.42 152.505 160.42ZM146.895 151.54H157.455C157.375 149.96 156.865 148.75 155.925 147.91C154.985 147.05 153.775 146.62 152.295 146.62C150.835 146.62 149.625 147.05 148.665 147.91C147.705 148.75 147.115 149.96 146.895 151.54ZM177.239 160.42C175.479 160.42 173.969 160 172.709 159.16C171.469 158.32 170.709 156.93 170.429 154.99L172.199 154.66C172.359 155.72 172.679 156.56 173.159 157.18C173.659 157.78 174.259 158.21 174.959 158.47C175.679 158.73 176.439 158.86 177.239 158.86C178.439 158.86 179.399 158.62 180.119 158.14C180.859 157.64 181.229 156.96 181.229 156.1C181.229 155.22 180.879 154.61 180.179 154.27C179.499 153.93 178.589 153.66 177.449 153.46L176.069 153.22C175.149 153.06 174.319 152.82 173.579 152.5C172.839 152.16 172.249 151.71 171.809 151.15C171.389 150.59 171.179 149.89 171.179 149.05C171.179 147.79 171.669 146.8 172.649 146.08C173.649 145.36 174.969 145 176.609 145C178.269 145 179.599 145.38 180.599 146.14C181.619 146.88 182.259 147.96 182.519 149.38L180.839 149.74C180.639 148.58 180.159 147.76 179.399 147.28C178.659 146.8 177.729 146.56 176.609 146.56C175.509 146.56 174.629 146.77 173.969 147.19C173.309 147.61 172.979 148.23 172.979 149.05C172.979 149.85 173.279 150.44 173.879 150.82C174.479 151.18 175.299 151.45 176.339 151.63L177.719 151.87C178.719 152.03 179.619 152.27 180.419 152.59C181.219 152.89 181.849 153.32 182.309 153.88C182.789 154.44 183.029 155.18 183.029 156.1C183.029 157.48 182.509 158.55 181.469 159.31C180.429 160.05 179.019 160.42 177.239 160.42ZM187.298 160V139H189.098V147.97H189.458C189.698 147.49 190.028 147.04 190.448 146.62C190.888 146.18 191.448 145.83 192.128 145.57C192.828 145.29 193.698 145.15 194.738 145.15C195.798 145.15 196.768 145.37 197.648 145.81C198.528 146.25 199.228 146.91 199.748 147.79C200.288 148.67 200.558 149.78 200.558 151.12V160H198.758V151.24C198.758 149.64 198.358 148.5 197.558 147.82C196.758 147.12 195.688 146.77 194.348 146.77C192.848 146.77 191.598 147.26 190.598 148.24C189.598 149.22 189.098 150.71 189.098 152.71V160H187.298ZM210.137 160.42C209.117 160.42 208.187 160.25 207.347 159.91C206.527 159.55 205.877 159.03 205.397 158.35C204.917 157.67 204.677 156.85 204.677 155.89C204.677 154.91 204.917 154.1 205.397 153.46C205.877 152.82 206.527 152.34 207.347 152.02C208.167 151.7 209.077 151.54 210.077 151.54H215.417V150.37C215.417 149.19 215.077 148.27 214.397 147.61C213.717 146.95 212.727 146.62 211.427 146.62C210.147 146.62 209.127 146.94 208.367 147.58C207.627 148.2 207.127 149.04 206.867 150.1L205.127 149.59C205.367 148.73 205.747 147.96 206.267 147.28C206.787 146.58 207.477 146.03 208.337 145.63C209.197 145.21 210.227 145 211.427 145C213.267 145 214.687 145.48 215.687 146.44C216.707 147.4 217.217 148.74 217.217 150.46V157.54C217.217 158.14 217.497 158.44 218.057 158.44H219.467V160H217.547C216.927 160 216.437 159.82 216.077 159.46C215.717 159.08 215.537 158.57 215.537 157.93V157.72H215.237C214.977 158.16 214.637 158.59 214.217 159.01C213.817 159.43 213.287 159.77 212.627 160.03C211.967 160.29 211.137 160.42 210.137 160.42ZM210.257 158.8C211.797 158.8 213.037 158.34 213.977 157.42C214.937 156.48 215.417 155.16 215.417 153.46V153.1H210.107C209.067 153.1 208.197 153.33 207.497 153.79C206.817 154.23 206.477 154.92 206.477 155.86C206.477 156.8 206.827 157.53 207.527 158.05C208.247 158.55 209.157 158.8 210.257 158.8ZM222.894 160V139H224.694V160H222.894ZM229.984 160V139H231.784V160H229.984ZM252.608 160.42C251.008 160.42 249.758 160.11 248.858 159.49C247.978 158.85 247.328 158.13 246.908 157.33H246.548V160H244.808V139H246.608V147.97H246.968C247.228 147.47 247.588 147 248.048 146.56C248.528 146.1 249.138 145.73 249.878 145.45C250.638 145.15 251.548 145 252.608 145C253.928 145 255.118 145.31 256.178 145.93C257.238 146.53 258.078 147.4 258.698 148.54C259.318 149.66 259.628 150.99 259.628 152.53V152.89C259.628 154.43 259.308 155.77 258.668 156.91C258.048 158.03 257.208 158.9 256.148 159.52C255.088 160.12 253.908 160.42 252.608 160.42ZM252.188 158.8C253.848 158.8 255.188 158.27 256.208 157.21C257.248 156.15 257.768 154.69 257.768 152.83V152.59C257.768 150.73 257.248 149.27 256.208 148.21C255.188 147.15 253.848 146.62 252.188 146.62C250.548 146.62 249.208 147.15 248.168 148.21C247.128 149.27 246.608 150.73 246.608 152.59V152.83C246.608 154.69 247.128 156.15 248.168 157.21C249.208 158.27 250.548 158.8 252.188 158.8ZM270.923 160.42C269.423 160.42 268.113 160.11 266.993 159.49C265.893 158.85 265.033 157.96 264.413 156.82C263.793 155.68 263.483 154.37 263.483 152.89V152.53C263.483 151.03 263.793 149.72 264.413 148.6C265.033 147.46 265.883 146.58 266.963 145.96C268.063 145.32 269.313 145 270.713 145C272.073 145 273.273 145.29 274.313 145.87C275.373 146.43 276.203 147.25 276.803 148.33C277.403 149.39 277.703 150.66 277.703 152.14V153.1H265.283C265.343 154.92 265.893 156.33 266.933 157.33C267.993 158.31 269.323 158.8 270.923 158.8C272.283 158.8 273.333 158.49 274.073 157.87C274.833 157.25 275.413 156.49 275.813 155.59L277.433 156.31C277.133 156.97 276.713 157.62 276.173 158.26C275.653 158.88 274.973 159.4 274.133 159.82C273.293 160.22 272.223 160.42 270.923 160.42ZM265.312 151.54H275.873C275.793 149.96 275.283 148.75 274.343 147.91C273.403 147.05 272.193 146.62 270.713 146.62C269.253 146.62 268.043 147.05 267.083 147.91C266.123 148.75 265.533 149.96 265.312 151.54ZM295.657 160.42C293.897 160.42 292.387 160 291.127 159.16C289.887 158.32 289.127 156.93 288.847 154.99L290.617 154.66C290.777 155.72 291.097 156.56 291.577 157.18C292.077 157.78 292.677 158.21 293.377 158.47C294.097 158.73 294.857 158.86 295.657 158.86C296.857 158.86 297.817 158.62 298.537 158.14C299.277 157.64 299.647 156.96 299.647 156.1C299.647 155.22 299.297 154.61 298.597 154.27C297.917 153.93 297.007 153.66 295.867 153.46L294.487 153.22C293.567 153.06 292.737 152.82 291.997 152.5C291.257 152.16 290.667 151.71 290.227 151.15C289.807 150.59 289.597 149.89 289.597 149.05C289.597 147.79 290.087 146.8 291.067 146.08C292.067 145.36 293.387 145 295.027 145C296.687 145 298.017 145.38 299.017 146.14C300.037 146.88 300.677 147.96 300.937 149.38L299.257 149.74C299.057 148.58 298.577 147.76 297.817 147.28C297.077 146.8 296.147 146.56 295.027 146.56C293.927 146.56 293.047 146.77 292.387 147.19C291.727 147.61 291.397 148.23 291.397 149.05C291.397 149.85 291.697 150.44 292.297 150.82C292.897 151.18 293.717 151.45 294.757 151.63L296.137 151.87C297.137 152.03 298.037 152.27 298.837 152.59C299.637 152.89 300.267 153.32 300.727 153.88C301.207 154.44 301.447 155.18 301.447 156.1C301.447 157.48 300.927 158.55 299.887 159.31C298.847 160.05 297.437 160.42 295.657 160.42ZM311.326 160.3C310.286 160.3 309.316 160.08 308.416 159.64C307.536 159.2 306.826 158.54 306.286 157.66C305.766 156.76 305.506 155.64 305.506 154.3V145.42H307.306V154.18C307.306 155.76 307.706 156.91 308.506 157.63C309.306 158.33 310.376 158.68 311.716 158.68C313.216 158.68 314.466 158.19 315.466 157.21C316.466 156.21 316.966 154.71 316.966 152.71V145.42H318.766V160H317.026V157.3H316.666C316.306 158.08 315.716 158.78 314.896 159.4C314.076 160 312.886 160.3 311.326 160.3ZM331.856 160.42C330.256 160.42 329.006 160.11 328.106 159.49C327.226 158.85 326.576 158.13 326.156 157.33H325.796V160H324.056V139H325.856V147.97H326.216C326.476 147.47 326.836 147 327.296 146.56C327.776 146.1 328.386 145.73 329.126 145.45C329.886 145.15 330.796 145 331.856 145C333.176 145 334.366 145.31 335.426 145.93C336.486 146.53 337.326 147.4 337.946 148.54C338.566 149.66 338.876 150.99 338.876 152.53V152.89C338.876 154.43 338.556 155.77 337.916 156.91C337.296 158.03 336.456 158.9 335.396 159.52C334.336 160.12 333.156 160.42 331.856 160.42ZM331.436 158.8C333.096 158.8 334.436 158.27 335.456 157.21C336.496 156.15 337.016 154.69 337.016 152.83V152.59C337.016 150.73 336.496 149.27 335.456 148.21C334.436 147.15 333.096 146.62 331.436 146.62C329.796 146.62 328.456 147.15 327.416 148.21C326.376 149.27 325.856 150.73 325.856 152.59V152.83C325.856 154.69 326.376 156.15 327.416 157.21C328.456 158.27 329.796 158.8 331.436 158.8ZM340.511 166V164.38H342.611C343.211 164.38 343.511 164.08 343.511 163.48V145.42H345.311V163.72C345.311 164.44 345.111 165 344.711 165.4C344.331 165.8 343.751 166 342.971 166H340.511ZM344.411 142.9C343.971 142.9 343.601 142.75 343.301 142.45C343.001 142.15 342.851 141.78 342.851 141.34C342.851 140.88 343.001 140.51 343.301 140.23C343.601 139.93 343.971 139.78 344.411 139.78C344.871 139.78 345.241 139.93 345.521 140.23C345.821 140.51 345.971 140.88 345.971 141.34C345.971 141.78 345.821 142.15 345.521 142.45C345.241 142.75 344.871 142.9 344.411 142.9ZM357.319 160.42C355.819 160.42 354.509 160.11 353.389 159.49C352.289 158.85 351.429 157.96 350.809 156.82C350.189 155.68 349.879 154.37 349.879 152.89V152.53C349.879 151.03 350.189 149.72 350.809 148.6C351.429 147.46 352.279 146.58 353.359 145.96C354.459 145.32 355.709 145 357.109 145C358.469 145 359.669 145.29 360.709 145.87C361.769 146.43 362.599 147.25 363.199 148.33C363.799 149.39 364.099 150.66 364.099 152.14V153.1H351.679C351.739 154.92 352.289 156.33 353.329 157.33C354.389 158.31 355.719 158.8 357.319 158.8C358.679 158.8 359.729 158.49 360.469 157.87C361.229 157.25 361.809 156.49 362.209 155.59L363.829 156.31C363.529 156.97 363.109 157.62 362.569 158.26C362.049 158.88 361.369 159.4 360.529 159.82C359.689 160.22 358.619 160.42 357.319 160.42ZM351.709 151.54H362.269C362.189 149.96 361.679 148.75 360.739 147.91C359.799 147.05 358.589 146.62 357.109 146.62C355.649 146.62 354.439 147.05 353.479 147.91C352.519 148.75 351.929 149.96 351.709 151.54ZM375.189 160.42C373.769 160.42 372.499 160.12 371.379 159.52C370.279 158.9 369.409 158.02 368.769 156.88C368.129 155.74 367.809 154.4 367.809 152.86V152.56C367.809 151 368.129 149.66 368.769 148.54C369.409 147.4 370.279 146.53 371.379 145.93C372.499 145.31 373.769 145 375.189 145C376.589 145 377.769 145.27 378.729 145.81C379.709 146.33 380.469 147.02 381.009 147.88C381.569 148.72 381.919 149.61 382.059 150.55L380.289 150.91C380.189 150.13 379.939 149.42 379.539 148.78C379.139 148.12 378.579 147.6 377.859 147.22C377.139 146.82 376.249 146.62 375.189 146.62C374.129 146.62 373.179 146.87 372.339 147.37C371.499 147.85 370.829 148.54 370.329 149.44C369.849 150.32 369.609 151.37 369.609 152.59V152.83C369.609 154.05 369.849 155.11 370.329 156.01C370.829 156.89 371.499 157.58 372.339 158.08C373.179 158.56 374.129 158.8 375.189 158.8C376.789 158.8 378.009 158.39 378.849 157.57C379.689 156.73 380.209 155.71 380.409 154.51L382.179 154.87C381.999 155.81 381.619 156.71 381.039 157.57C380.479 158.41 379.709 159.1 378.729 159.64C377.769 160.16 376.589 160.42 375.189 160.42ZM391.24 160C390.46 160 389.87 159.8 389.47 159.4C389.09 159 388.9 158.44 388.9 157.72V147.04H384.22V145.42H388.9V139.96H390.7V145.42H395.8V147.04H390.7V157.48C390.7 158.08 391 158.38 391.6 158.38H395.02V160H391.24ZM406.01 160.42C404.51 160.42 403.2 160.11 402.08 159.49C400.98 158.85 400.12 157.96 399.5 156.82C398.88 155.68 398.57 154.37 398.57 152.89V152.53C398.57 151.03 398.88 149.72 399.5 148.6C400.12 147.46 400.97 146.58 402.05 145.96C403.15 145.32 404.4 145 405.8 145C407.16 145 408.36 145.29 409.4 145.87C410.46 146.43 411.29 147.25 411.89 148.33C412.49 149.39 412.79 150.66 412.79 152.14V153.1H400.37C400.43 154.92 400.98 156.33 402.02 157.33C403.08 158.31 404.41 158.8 406.01 158.8C407.37 158.8 408.42 158.49 409.16 157.87C409.92 157.25 410.5 156.49 410.9 155.59L412.52 156.31C412.22 156.97 411.8 157.62 411.26 158.26C410.74 158.88 410.06 159.4 409.22 159.82C408.38 160.22 407.31 160.42 406.01 160.42ZM400.4 151.54H410.96C410.88 149.96 410.37 148.75 409.43 147.91C408.49 147.05 407.28 146.62 405.8 146.62C404.34 146.62 403.13 147.05 402.17 147.91C401.21 148.75 400.62 149.96 400.4 151.54ZM423.52 160.42C422.22 160.42 421.04 160.12 419.98 159.52C418.92 158.9 418.07 158.03 417.43 156.91C416.81 155.77 416.5 154.43 416.5 152.89V152.53C416.5 150.99 416.81 149.66 417.43 148.54C418.05 147.4 418.89 146.53 419.95 145.93C421.03 145.31 422.22 145 423.52 145C424.6 145 425.51 145.15 426.25 145.45C426.99 145.73 427.59 146.1 428.05 146.56C428.53 147 428.9 147.47 429.16 147.97H429.52V139H431.32V160H429.58V157.33H429.22C428.8 158.13 428.14 158.85 427.24 159.49C426.36 160.11 425.12 160.42 423.52 160.42ZM423.94 158.8C425.6 158.8 426.94 158.27 427.96 157.21C429 156.15 429.52 154.69 429.52 152.83V152.59C429.52 150.73 429 149.27 427.96 148.21C426.94 147.15 425.6 146.62 423.94 146.62C422.3 146.62 420.96 147.15 419.92 148.21C418.88 149.27 418.36 150.73 418.36 152.59V152.83C418.36 154.69 418.88 156.15 419.92 157.21C420.96 158.27 422.3 158.8 423.94 158.8ZM449.629 160C448.849 160 448.259 159.8 447.859 159.4C447.479 159 447.289 158.44 447.289 157.72V147.04H442.609V145.42H447.289V139.96H449.089V145.42H454.189V147.04H449.089V157.48C449.089 158.08 449.389 158.38 449.989 158.38H453.409V160H449.629ZM464.339 160.42C462.859 160.42 461.559 160.11 460.439 159.49C459.339 158.85 458.479 157.97 457.859 156.85C457.259 155.71 456.959 154.39 456.959 152.89V152.53C456.959 151.03 457.259 149.72 457.859 148.6C458.479 147.46 459.339 146.58 460.439 145.96C461.559 145.32 462.859 145 464.339 145C465.819 145 467.109 145.32 468.209 145.96C469.329 146.58 470.189 147.46 470.789 148.6C471.409 149.72 471.719 151.03 471.719 152.53V152.89C471.719 154.39 471.409 155.71 470.789 156.85C470.189 157.97 469.329 158.85 468.209 159.49C467.109 160.11 465.819 160.42 464.339 160.42ZM464.339 158.8C466.059 158.8 467.419 158.26 468.419 157.18C469.419 156.08 469.919 154.63 469.919 152.83V152.59C469.919 150.79 469.419 149.35 468.419 148.27C467.419 147.17 466.059 146.62 464.339 146.62C462.639 146.62 461.279 147.17 460.259 148.27C459.259 149.35 458.759 150.79 458.759 152.59V152.83C458.759 154.63 459.259 156.08 460.259 157.18C461.279 158.26 462.639 158.8 464.339 158.8ZM488.487 160.42C487.467 160.42 486.537 160.25 485.697 159.91C484.877 159.55 484.227 159.03 483.747 158.35C483.267 157.67 483.027 156.85 483.027 155.89C483.027 154.91 483.267 154.1 483.747 153.46C484.227 152.82 484.877 152.34 485.697 152.02C486.517 151.7 487.427 151.54 488.427 151.54H493.767V150.37C493.767 149.19 493.427 148.27 492.747 147.61C492.067 146.95 491.077 146.62 489.777 146.62C488.497 146.62 487.477 146.94 486.717 147.58C485.977 148.2 485.477 149.04 485.217 150.1L483.477 149.59C483.717 148.73 484.097 147.96 484.617 147.28C485.137 146.58 485.827 146.03 486.687 145.63C487.547 145.21 488.577 145 489.777 145C491.617 145 493.037 145.48 494.037 146.44C495.057 147.4 495.567 148.74 495.567 150.46V157.54C495.567 158.14 495.847 158.44 496.407 158.44H497.817V160H495.897C495.277 160 494.787 159.82 494.427 159.46C494.067 159.08 493.887 158.57 493.887 157.93V157.72H493.587C493.327 158.16 492.987 158.59 492.567 159.01C492.167 159.43 491.637 159.77 490.977 160.03C490.317 160.29 489.487 160.42 488.487 160.42ZM488.607 158.8C490.147 158.8 491.387 158.34 492.327 157.42C493.287 156.48 493.767 155.16 493.767 153.46V153.1H488.457C487.417 153.1 486.547 153.33 485.847 153.79C485.167 154.23 484.827 154.92 484.827 155.86C484.827 156.8 485.177 157.53 485.877 158.05C486.597 158.55 487.507 158.8 488.607 158.8ZM501.244 160V145.42H502.984V147.25H503.344C503.624 146.59 504.034 146.11 504.574 145.81C505.134 145.51 505.904 145.36 506.884 145.36H508.594V147.04H506.674C505.574 147.04 504.694 147.35 504.034 147.97C503.374 148.59 503.044 149.56 503.044 150.88V160H501.244ZM520.118 160.42C518.518 160.42 517.268 160.11 516.368 159.49C515.488 158.85 514.838 158.13 514.418 157.33H514.058V160H512.318V139H514.118V147.97H514.478C514.738 147.47 515.098 147 515.558 146.56C516.038 146.1 516.648 145.73 517.388 145.45C518.148 145.15 519.058 145 520.118 145C521.438 145 522.628 145.31 523.688 145.93C524.748 146.53 525.588 147.4 526.208 148.54C526.828 149.66 527.138 150.99 527.138 152.53V152.89C527.138 154.43 526.818 155.77 526.178 156.91C525.558 158.03 524.718 158.9 523.658 159.52C522.598 160.12 521.418 160.42 520.118 160.42ZM519.698 158.8C521.358 158.8 522.698 158.27 523.718 157.21C524.758 156.15 525.278 154.69 525.278 152.83V152.59C525.278 150.73 524.758 149.27 523.718 148.21C522.698 147.15 521.358 146.62 519.698 146.62C518.058 146.62 516.718 147.15 515.678 148.21C514.638 149.27 514.118 150.73 514.118 152.59V152.83C514.118 154.69 514.638 156.15 515.678 157.21C516.718 158.27 518.058 158.8 519.698 158.8ZM531.712 160V145.42H533.512V160H531.712ZM532.612 142.9C532.172 142.9 531.802 142.75 531.502 142.45C531.202 142.15 531.052 141.78 531.052 141.34C531.052 140.88 531.202 140.51 531.502 140.23C531.802 139.93 532.172 139.78 532.612 139.78C533.072 139.78 533.442 139.93 533.722 140.23C534.022 140.51 534.172 140.88 534.172 141.34C534.172 141.78 534.022 142.15 533.722 142.45C533.442 142.75 533.072 142.9 532.612 142.9ZM544.082 160C543.302 160 542.712 159.8 542.312 159.4C541.932 159 541.742 158.44 541.742 157.72V147.04H537.062V145.42H541.742V139.96H543.542V145.42H548.642V147.04H543.542V157.48C543.542 158.08 543.842 158.38 544.442 158.38H547.862V160H544.082ZM552.66 160V145.42H554.4V147.25H554.76C555.04 146.59 555.45 146.11 555.99 145.81C556.55 145.51 557.32 145.36 558.3 145.36H560.01V147.04H558.09C556.99 147.04 556.11 147.35 555.45 147.97C554.79 148.59 554.46 149.56 554.46 150.88V160H552.66ZM567.647 160.42C566.627 160.42 565.697 160.25 564.857 159.91C564.037 159.55 563.387 159.03 562.907 158.35C562.427 157.67 562.187 156.85 562.187 155.89C562.187 154.91 562.427 154.1 562.907 153.46C563.387 152.82 564.037 152.34 564.857 152.02C565.677 151.7 566.587 151.54 567.587 151.54H572.927V150.37C572.927 149.19 572.587 148.27 571.907 147.61C571.227 146.95 570.237 146.62 568.937 146.62C567.657 146.62 566.637 146.94 565.877 147.58C565.137 148.2 564.637 149.04 564.377 150.1L562.637 149.59C562.877 148.73 563.257 147.96 563.777 147.28C564.297 146.58 564.987 146.03 565.847 145.63C566.707 145.21 567.737 145 568.937 145C570.777 145 572.197 145.48 573.197 146.44C574.217 147.4 574.727 148.74 574.727 150.46V157.54C574.727 158.14 575.007 158.44 575.567 158.44H576.977V160H575.057C574.437 160 573.947 159.82 573.587 159.46C573.227 159.08 573.047 158.57 573.047 157.93V157.72H572.747C572.487 158.16 572.147 158.59 571.727 159.01C571.327 159.43 570.797 159.77 570.137 160.03C569.477 160.29 568.647 160.42 567.647 160.42ZM567.767 158.8C569.307 158.8 570.547 158.34 571.487 157.42C572.447 156.48 572.927 155.16 572.927 153.46V153.1H567.617C566.577 153.1 565.707 153.33 565.007 153.79C564.327 154.23 563.987 154.92 563.987 155.86C563.987 156.8 564.337 157.53 565.037 158.05C565.757 158.55 566.667 158.8 567.767 158.8ZM580.404 160V145.42H582.144V147.25H582.504C582.784 146.59 583.194 146.11 583.734 145.81C584.294 145.51 585.064 145.36 586.044 145.36H587.754V147.04H585.834C584.734 147.04 583.854 147.35 583.194 147.97C582.534 148.59 582.204 149.56 582.204 150.88V160H580.404ZM593.308 166V164.38H601.828C602.428 164.38 602.728 164.08 602.728 163.48V157.48H602.368C602.128 157.96 601.788 158.42 601.348 158.86C600.928 159.28 600.368 159.63 599.668 159.91C598.988 160.17 598.128 160.3 597.088 160.3C596.048 160.3 595.078 160.08 594.178 159.64C593.298 159.2 592.588 158.54 592.048 157.66C591.528 156.78 591.268 155.67 591.268 154.33V145.42H593.068V154.21C593.068 155.79 593.468 156.93 594.268 157.63C595.068 158.33 596.138 158.68 597.478 158.68C598.978 158.68 600.228 158.19 601.228 157.21C602.228 156.23 602.728 154.74 602.728 152.74V145.42H604.528V163.72C604.528 164.44 604.328 165 603.928 165.4C603.548 165.8 602.968 166 602.188 166H593.308ZM622.022 160.42C621.002 160.42 620.072 160.25 619.232 159.91C618.412 159.55 617.762 159.03 617.282 158.35C616.802 157.67 616.562 156.85 616.562 155.89C616.562 154.91 616.802 154.1 617.282 153.46C617.762 152.82 618.412 152.34 619.232 152.02C620.052 151.7 620.962 151.54 621.962 151.54H627.302V150.37C627.302 149.19 626.962 148.27 626.282 147.61C625.602 146.95 624.612 146.62 623.312 146.62C622.032 146.62 621.012 146.94 620.252 147.58C619.512 148.2 619.012 149.04 618.752 150.1L617.012 149.59C617.252 148.73 617.632 147.96 618.152 147.28C618.672 146.58 619.362 146.03 620.222 145.63C621.082 145.21 622.112 145 623.312 145C625.152 145 626.572 145.48 627.572 146.44C628.592 147.4 629.102 148.74 629.102 150.46V157.54C629.102 158.14 629.382 158.44 629.942 158.44H631.352V160H629.432C628.812 160 628.322 159.82 627.962 159.46C627.602 159.08 627.422 158.57 627.422 157.93V157.72H627.122C626.862 158.16 626.522 158.59 626.102 159.01C625.702 159.43 625.172 159.77 624.512 160.03C623.852 160.29 623.022 160.42 622.022 160.42ZM622.142 158.8C623.682 158.8 624.922 158.34 625.862 157.42C626.822 156.48 627.302 155.16 627.302 153.46V153.1H621.992C620.952 153.1 620.082 153.33 619.382 153.79C618.702 154.23 618.362 154.92 618.362 155.86C618.362 156.8 618.712 157.53 619.412 158.05C620.132 158.55 621.042 158.8 622.142 158.8ZM634.779 160V145.42H636.519V147.25H636.879C637.159 146.59 637.569 146.11 638.109 145.81C638.669 145.51 639.439 145.36 640.419 145.36H642.129V147.04H640.209C639.109 147.04 638.229 147.35 637.569 147.97C636.909 148.59 636.579 149.56 636.579 150.88V160H634.779ZM645.853 160V145.42H647.593V147.25H647.953C648.233 146.59 648.643 146.11 649.183 145.81C649.743 145.51 650.513 145.36 651.493 145.36H653.203V147.04H651.283C650.183 147.04 649.303 147.35 648.643 147.97C647.983 148.59 647.653 149.56 647.653 150.88V160H645.853ZM663.12 160.42C661.62 160.42 660.31 160.11 659.19 159.49C658.09 158.85 657.23 157.96 656.61 156.82C655.99 155.68 655.68 154.37 655.68 152.89V152.53C655.68 151.03 655.99 149.72 656.61 148.6C657.23 147.46 658.08 146.58 659.16 145.96C660.26 145.32 661.51 145 662.91 145C664.27 145 665.47 145.29 666.51 145.87C667.57 146.43 668.4 147.25 669 148.33C669.6 149.39 669.9 150.66 669.9 152.14V153.1H657.48C657.54 154.92 658.09 156.33 659.13 157.33C660.19 158.31 661.52 158.8 663.12 158.8C664.48 158.8 665.53 158.49 666.27 157.87C667.03 157.25 667.61 156.49 668.01 155.59L669.63 156.31C669.33 156.97 668.91 157.62 668.37 158.26C667.85 158.88 667.17 159.4 666.33 159.82C665.49 160.22 664.42 160.42 663.12 160.42ZM657.51 151.54H668.07C667.99 149.96 667.48 148.75 666.54 147.91C665.6 147.05 664.39 146.62 662.91 146.62C661.45 146.62 660.24 147.05 659.28 147.91C658.32 148.75 657.73 149.96 657.51 151.54ZM680.119 160.42C678.359 160.42 676.849 160 675.589 159.16C674.349 158.32 673.589 156.93 673.309 154.99L675.079 154.66C675.239 155.72 675.559 156.56 676.039 157.18C676.539 157.78 677.139 158.21 677.839 158.47C678.559 158.73 679.319 158.86 680.119 158.86C681.319 158.86 682.279 158.62 682.999 158.14C683.739 157.64 684.109 156.96 684.109 156.1C684.109 155.22 683.759 154.61 683.059 154.27C682.379 153.93 681.469 153.66 680.329 153.46L678.949 153.22C678.029 153.06 677.199 152.82 676.459 152.5C675.719 152.16 675.129 151.71 674.689 151.15C674.269 150.59 674.059 149.89 674.059 149.05C674.059 147.79 674.549 146.8 675.529 146.08C676.529 145.36 677.849 145 679.489 145C681.149 145 682.479 145.38 683.479 146.14C684.499 146.88 685.139 147.96 685.399 149.38L683.719 149.74C683.519 148.58 683.039 147.76 682.279 147.28C681.539 146.8 680.609 146.56 679.489 146.56C678.389 146.56 677.509 146.77 676.849 147.19C676.189 147.61 675.859 148.23 675.859 149.05C675.859 149.85 676.159 150.44 676.759 150.82C677.359 151.18 678.179 151.45 679.219 151.63L680.599 151.87C681.599 152.03 682.499 152.27 683.299 152.59C684.099 152.89 684.729 153.32 685.189 153.88C685.669 154.44 685.909 155.18 685.909 156.1C685.909 157.48 685.389 158.55 684.349 159.31C683.309 160.05 681.899 160.42 680.119 160.42ZM695.107 160C694.328 160 693.738 159.8 693.338 159.4C692.958 159 692.768 158.44 692.768 157.72V147.04H688.088V145.42H692.768V139.96H694.568V145.42H699.668V147.04H694.568V157.48C694.568 158.08 694.868 158.38 695.468 158.38H698.888V160H695.107ZM703.265 163.48V162.22H703.985C704.625 162.22 704.945 161.9 704.945 161.26V160.3H704.555C704.075 160.3 703.665 160.15 703.325 159.85C703.005 159.53 702.845 159.13 702.845 158.65C702.845 158.17 703.005 157.78 703.325 157.48C703.665 157.16 704.075 157 704.555 157C705.035 157 705.435 157.17 705.755 157.51C706.095 157.83 706.265 158.23 706.265 158.71V161.2C706.265 162.72 705.515 163.48 704.015 163.48H703.265ZM723.725 160.42C722.425 160.42 721.245 160.12 720.185 159.52C719.125 158.9 718.275 158.03 717.635 156.91C717.015 155.77 716.705 154.43 716.705 152.89V152.53C716.705 150.99 717.015 149.66 717.635 148.54C718.255 147.4 719.095 146.53 720.155 145.93C721.235 145.31 722.425 145 723.725 145C724.805 145 725.715 145.15 726.455 145.45C727.195 145.73 727.795 146.1 728.255 146.56C728.735 147 729.105 147.47 729.365 147.97H729.725V139H731.525V160H729.785V157.33H729.425C729.005 158.13 728.345 158.85 727.445 159.49C726.565 160.11 725.325 160.42 723.725 160.42ZM724.145 158.8C725.805 158.8 727.145 158.27 728.165 157.21C729.205 156.15 729.725 154.69 729.725 152.83V152.59C729.725 150.73 729.205 149.27 728.165 148.21C727.145 147.15 725.805 146.62 724.145 146.62C722.505 146.62 721.165 147.15 720.125 148.21C719.085 149.27 718.565 150.73 718.565 152.59V152.83C718.565 154.69 719.085 156.15 720.125 157.21C721.165 158.27 722.505 158.8 724.145 158.8ZM743.54 160.42C742.04 160.42 740.73 160.11 739.61 159.49C738.51 158.85 737.65 157.96 737.03 156.82C736.41 155.68 736.1 154.37 736.1 152.89V152.53C736.1 151.03 736.41 149.72 737.03 148.6C737.65 147.46 738.5 146.58 739.58 145.96C740.68 145.32 741.93 145 743.33 145C744.69 145 745.89 145.29 746.93 145.87C747.99 146.43 748.82 147.25 749.42 148.33C750.02 149.39 750.32 150.66 750.32 152.14V153.1H737.9C737.96 154.92 738.51 156.33 739.55 157.33C740.61 158.31 741.94 158.8 743.54 158.8C744.9 158.8 745.95 158.49 746.69 157.87C747.45 157.25 748.03 156.49 748.43 155.59L750.05 156.31C749.75 156.97 749.33 157.62 748.79 158.26C748.27 158.88 747.59 159.4 746.75 159.82C745.91 160.22 744.84 160.42 743.54 160.42ZM737.93 151.54H748.49C748.41 149.96 747.9 148.75 746.96 147.91C746.02 147.05 744.81 146.62 743.33 146.62C741.87 146.62 740.66 147.05 739.7 147.91C738.74 148.75 738.15 149.96 737.93 151.54ZM759.385 160C758.605 160 758.015 159.8 757.615 159.4C757.235 159 757.045 158.44 757.045 157.72V147.04H752.365V145.42H757.045V139.96H758.845V145.42H763.945V147.04H758.845V157.48C758.845 158.08 759.145 158.38 759.745 158.38H763.165V160H759.385ZM774.155 160.42C772.655 160.42 771.345 160.11 770.225 159.49C769.125 158.85 768.265 157.96 767.645 156.82C767.025 155.68 766.715 154.37 766.715 152.89V152.53C766.715 151.03 767.025 149.72 767.645 148.6C768.265 147.46 769.115 146.58 770.195 145.96C771.295 145.32 772.545 145 773.945 145C775.305 145 776.505 145.29 777.545 145.87C778.605 146.43 779.435 147.25 780.035 148.33C780.635 149.39 780.935 150.66 780.935 152.14V153.1H768.515C768.575 154.92 769.125 156.33 770.165 157.33C771.225 158.31 772.555 158.8 774.155 158.8C775.515 158.8 776.565 158.49 777.305 157.87C778.065 157.25 778.645 156.49 779.045 155.59L780.665 156.31C780.365 156.97 779.945 157.62 779.405 158.26C778.885 158.88 778.205 159.4 777.365 159.82C776.525 160.22 775.455 160.42 774.155 160.42ZM768.545 151.54H779.105C779.025 149.96 778.515 148.75 777.575 147.91C776.635 147.05 775.425 146.62 773.945 146.62C772.485 146.62 771.275 147.05 770.315 147.91C769.355 148.75 768.765 149.96 768.545 151.54ZM785.365 160V145.42H787.105V148.12H787.465C787.825 147.34 788.415 146.65 789.235 146.05C790.055 145.43 791.245 145.12 792.805 145.12C793.865 145.12 794.835 145.34 795.715 145.78C796.595 146.22 797.295 146.89 797.815 147.79C798.355 148.67 798.625 149.78 798.625 151.12V160H796.825V151.24C796.825 149.64 796.425 148.49 795.625 147.79C794.825 147.09 793.755 146.74 792.415 146.74C790.915 146.74 789.665 147.24 788.665 148.24C787.665 149.22 787.165 150.71 787.165 152.71V160H785.365ZM808.604 160C807.824 160 807.234 159.8 806.834 159.4C806.454 159 806.264 158.44 806.264 157.72V147.04H801.584V145.42H806.264V139.96H808.064V145.42H813.164V147.04H808.064V157.48C808.064 158.08 808.364 158.38 808.964 158.38H812.384V160H808.604ZM817.181 160V145.42H818.981V160H817.181ZM818.081 142.9C817.641 142.9 817.271 142.75 816.971 142.45C816.671 142.15 816.521 141.78 816.521 141.34C816.521 140.88 816.671 140.51 816.971 140.23C817.271 139.93 817.641 139.78 818.081 139.78C818.541 139.78 818.911 139.93 819.191 140.23C819.491 140.51 819.641 140.88 819.641 141.34C819.641 141.78 819.491 142.15 819.191 142.45C818.911 142.75 818.541 142.9 818.081 142.9ZM830.931 160.42C829.451 160.42 828.151 160.11 827.031 159.49C825.931 158.85 825.071 157.97 824.451 156.85C823.851 155.71 823.551 154.39 823.551 152.89V152.53C823.551 151.03 823.851 149.72 824.451 148.6C825.071 147.46 825.931 146.58 827.031 145.96C828.151 145.32 829.451 145 830.931 145C832.411 145 833.701 145.32 834.801 145.96C835.921 146.58 836.781 147.46 837.381 148.6C838.001 149.72 838.311 151.03 838.311 152.53V152.89C838.311 154.39 838.001 155.71 837.381 156.85C836.781 157.97 835.921 158.85 834.801 159.49C833.701 160.11 832.411 160.42 830.931 160.42ZM830.931 158.8C832.651 158.8 834.011 158.26 835.011 157.18C836.011 156.08 836.511 154.63 836.511 152.83V152.59C836.511 150.79 836.011 149.35 835.011 148.27C834.011 147.17 832.651 146.62 830.931 146.62C829.231 146.62 827.871 147.17 826.851 148.27C825.851 149.35 825.351 150.79 825.351 152.59V152.83C825.351 154.63 825.851 156.08 826.851 157.18C827.871 158.26 829.231 158.8 830.931 158.8ZM842.874 160V145.42H844.614V148.12H844.974C845.334 147.34 845.924 146.65 846.744 146.05C847.564 145.43 848.754 145.12 850.314 145.12C851.374 145.12 852.344 145.34 853.224 145.78C854.104 146.22 854.804 146.89 855.324 147.79C855.864 148.67 856.134 149.78 856.134 151.12V160H854.334V151.24C854.334 149.64 853.934 148.49 853.134 147.79C852.334 147.09 851.264 146.74 849.924 146.74C848.424 146.74 847.174 147.24 846.174 148.24C845.174 149.22 844.674 150.71 844.674 152.71V160H842.874ZM875.638 160.42C874.158 160.42 872.858 160.11 871.738 159.49C870.638 158.85 869.778 157.97 869.158 156.85C868.558 155.71 868.258 154.39 868.258 152.89V152.53C868.258 151.03 868.558 149.72 869.158 148.6C869.778 147.46 870.638 146.58 871.738 145.96C872.858 145.32 874.158 145 875.638 145C877.118 145 878.408 145.32 879.508 145.96C880.628 146.58 881.488 147.46 882.088 148.6C882.708 149.72 883.018 151.03 883.018 152.53V152.89C883.018 154.39 882.708 155.71 882.088 156.85C881.488 157.97 880.628 158.85 879.508 159.49C878.408 160.11 877.118 160.42 875.638 160.42ZM875.638 158.8C877.358 158.8 878.718 158.26 879.718 157.18C880.718 156.08 881.218 154.63 881.218 152.83V152.59C881.218 150.79 880.718 149.35 879.718 148.27C878.718 147.17 877.358 146.62 875.638 146.62C873.938 146.62 872.578 147.17 871.558 148.27C870.558 149.35 870.058 150.79 870.058 152.59V152.83C870.058 154.63 870.558 156.08 871.558 157.18C872.578 158.26 873.938 158.8 875.638 158.8ZM887.581 160V145.42H889.321V147.25H889.681C889.961 146.59 890.371 146.11 890.911 145.81C891.471 145.51 892.241 145.36 893.221 145.36H894.931V147.04H893.011C891.911 147.04 891.031 147.35 890.371 147.97C889.711 148.59 889.381 149.56 889.381 150.88V160H887.581ZM69.36 198.42C67.86 198.42 66.55 198.11 65.43 197.49C64.33 196.85 63.47 195.96 62.85 194.82C62.23 193.68 61.92 192.37 61.92 190.89V190.53C61.92 189.03 62.23 187.72 62.85 186.6C63.47 185.46 64.32 184.58 65.4 183.96C66.5 183.32 67.75 183 69.15 183C70.51 183 71.71 183.29 72.75 183.87C73.81 184.43 74.64 185.25 75.24 186.33C75.84 187.39 76.14 188.66 76.14 190.14V191.1H63.72C63.78 192.92 64.33 194.33 65.37 195.33C66.43 196.31 67.76 196.8 69.36 196.8C70.72 196.8 71.77 196.49 72.51 195.87C73.27 195.25 73.85 194.49 74.25 193.59L75.87 194.31C75.57 194.97 75.15 195.62 74.61 196.26C74.09 196.88 73.41 197.4 72.57 197.82C71.73 198.22 70.66 198.42 69.36 198.42ZM63.75 189.54H74.31C74.23 187.96 73.72 186.75 72.78 185.91C71.84 185.05 70.63 184.62 69.15 184.62C67.69 184.62 66.48 185.05 65.52 185.91C64.56 186.75 63.97 187.96 63.75 189.54ZM78.4336 198L84.5236 190.59L78.6436 183.42H80.8936L85.6636 189.39H86.0236L90.7936 183.42H93.0436L87.1636 190.59L93.2536 198H90.9736L86.0236 191.79H85.6636L80.7136 198H78.4336ZM97.3861 198V183.42H99.1861V198H97.3861ZM98.2861 180.9C97.8461 180.9 97.4761 180.75 97.1761 180.45C96.8761 180.15 96.7261 179.78 96.7261 179.34C96.7261 178.88 96.8761 178.51 97.1761 178.23C97.4761 177.93 97.8461 177.78 98.2861 177.78C98.7461 177.78 99.1161 177.93 99.3961 178.23C99.6961 178.51 99.8461 178.88 99.8461 179.34C99.8461 179.78 99.6961 180.15 99.3961 180.45C99.1161 180.75 98.7461 180.9 98.2861 180.9ZM104.476 198V177H106.276V198H104.476ZM118.286 198.42C116.786 198.42 115.476 198.11 114.356 197.49C113.256 196.85 112.396 195.96 111.776 194.82C111.156 193.68 110.846 192.37 110.846 190.89V190.53C110.846 189.03 111.156 187.72 111.776 186.6C112.396 185.46 113.246 184.58 114.326 183.96C115.426 183.32 116.676 183 118.076 183C119.436 183 120.636 183.29 121.676 183.87C122.736 184.43 123.566 185.25 124.166 186.33C124.766 187.39 125.066 188.66 125.066 190.14V191.1H112.646C112.706 192.92 113.256 194.33 114.296 195.33C115.356 196.31 116.686 196.8 118.286 196.8C119.646 196.8 120.696 196.49 121.436 195.87C122.196 195.25 122.776 194.49 123.176 193.59L124.796 194.31C124.496 194.97 124.076 195.62 123.536 196.26C123.016 196.88 122.336 197.4 121.496 197.82C120.656 198.22 119.586 198.42 118.286 198.42ZM112.676 189.54H123.236C123.156 187.96 122.646 186.75 121.706 185.91C120.766 185.05 119.556 184.62 118.076 184.62C116.616 184.62 115.406 185.05 114.446 185.91C113.486 186.75 112.896 187.96 112.676 189.54ZM130.131 198.42C129.631 198.42 129.221 198.26 128.901 197.94C128.581 197.62 128.421 197.21 128.421 196.71C128.421 196.21 128.581 195.8 128.901 195.48C129.221 195.16 129.631 195 130.131 195C130.631 195 131.041 195.16 131.361 195.48C131.681 195.8 131.841 196.21 131.841 196.71C131.841 197.21 131.681 197.62 131.361 197.94C131.041 198.26 130.631 198.42 130.131 198.42ZM142.941 198V177H155.631V178.74H144.861V186.6H154.791V188.34H144.861V196.26H155.751V198H142.941ZM163.983 198L158.523 183.42H160.443L165.243 196.62H165.603L170.403 183.42H172.323L166.863 198H163.983ZM182.124 198.42C180.624 198.42 179.314 198.11 178.194 197.49C177.094 196.85 176.234 195.96 175.614 194.82C174.994 193.68 174.684 192.37 174.684 190.89V190.53C174.684 189.03 174.994 187.72 175.614 186.6C176.234 185.46 177.084 184.58 178.164 183.96C179.264 183.32 180.514 183 181.914 183C183.274 183 184.474 183.29 185.514 183.87C186.574 184.43 187.404 185.25 188.004 186.33C188.604 187.39 188.904 188.66 188.904 190.14V191.1H176.484C176.544 192.92 177.094 194.33 178.134 195.33C179.194 196.31 180.524 196.8 182.124 196.8C183.484 196.8 184.534 196.49 185.274 195.87C186.034 195.25 186.614 194.49 187.014 193.59L188.634 194.31C188.334 194.97 187.914 195.62 187.374 196.26C186.854 196.88 186.174 197.4 185.334 197.82C184.494 198.22 183.424 198.42 182.124 198.42ZM176.514 189.54H187.074C186.994 187.96 186.484 186.75 185.544 185.91C184.604 185.05 183.394 184.62 181.914 184.62C180.454 184.62 179.244 185.05 178.284 185.91C177.324 186.75 176.734 187.96 176.514 189.54ZM193.333 198V183.42H195.073V185.25H195.433C195.713 184.59 196.123 184.11 196.663 183.81C197.223 183.51 197.993 183.36 198.973 183.36H200.683V185.04H198.763C197.663 185.04 196.783 185.35 196.123 185.97C195.463 186.59 195.133 187.56 195.133 188.88V198H193.333ZM206.238 204V202.38H214.758C215.358 202.38 215.658 202.08 215.658 201.48V195.48H215.298C215.058 195.96 214.718 196.42 214.278 196.86C213.858 197.28 213.298 197.63 212.598 197.91C211.918 198.17 211.058 198.3 210.018 198.3C208.978 198.3 208.008 198.08 207.108 197.64C206.228 197.2 205.518 196.54 204.978 195.66C204.458 194.78 204.198 193.67 204.198 192.33V183.42H205.998V192.21C205.998 193.79 206.398 194.93 207.198 195.63C207.998 196.33 209.068 196.68 210.408 196.68C211.908 196.68 213.158 196.19 214.158 195.21C215.158 194.23 215.658 192.74 215.658 190.74V183.42H217.458V201.72C217.458 202.44 217.258 203 216.858 203.4C216.478 203.8 215.898 204 215.118 204H206.238ZM229.407 198.42C227.927 198.42 226.627 198.11 225.507 197.49C224.407 196.85 223.547 195.97 222.927 194.85C222.327 193.71 222.027 192.39 222.027 190.89V190.53C222.027 189.03 222.327 187.72 222.927 186.6C223.547 185.46 224.407 184.58 225.507 183.96C226.627 183.32 227.927 183 229.407 183C230.887 183 232.177 183.32 233.277 183.96C234.397 184.58 235.257 185.46 235.857 186.6C236.477 187.72 236.787 189.03 236.787 190.53V190.89C236.787 192.39 236.477 193.71 235.857 194.85C235.257 195.97 234.397 196.85 233.277 197.49C232.177 198.11 230.887 198.42 229.407 198.42ZM229.407 196.8C231.127 196.8 232.487 196.26 233.487 195.18C234.487 194.08 234.987 192.63 234.987 190.83V190.59C234.987 188.79 234.487 187.35 233.487 186.27C232.487 185.17 231.127 184.62 229.407 184.62C227.707 184.62 226.347 185.17 225.327 186.27C224.327 187.35 223.827 188.79 223.827 190.59V190.83C223.827 192.63 224.327 194.08 225.327 195.18C226.347 196.26 227.707 196.8 229.407 196.8ZM241.351 198V183.42H243.091V186.12H243.451C243.811 185.34 244.401 184.65 245.221 184.05C246.041 183.43 247.231 183.12 248.791 183.12C249.851 183.12 250.821 183.34 251.701 183.78C252.581 184.22 253.281 184.89 253.801 185.79C254.341 186.67 254.611 187.78 254.611 189.12V198H252.811V189.24C252.811 187.64 252.411 186.49 251.611 185.79C250.811 185.09 249.741 184.74 248.401 184.74C246.901 184.74 245.651 185.24 244.651 186.24C243.651 187.22 243.151 188.71 243.151 190.71V198H241.351ZM266.44 198.42C264.94 198.42 263.63 198.11 262.51 197.49C261.41 196.85 260.55 195.96 259.93 194.82C259.31 193.68 259 192.37 259 190.89V190.53C259 189.03 259.31 187.72 259.93 186.6C260.55 185.46 261.4 184.58 262.48 183.96C263.58 183.32 264.83 183 266.23 183C267.59 183 268.79 183.29 269.83 183.87C270.89 184.43 271.72 185.25 272.32 186.33C272.92 187.39 273.22 188.66 273.22 190.14V191.1H260.8C260.86 192.92 261.41 194.33 262.45 195.33C263.51 196.31 264.84 196.8 266.44 196.8C267.8 196.8 268.85 196.49 269.59 195.87C270.35 195.25 270.93 194.49 271.33 193.59L272.95 194.31C272.65 194.97 272.23 195.62 271.69 196.26C271.17 196.88 270.49 197.4 269.65 197.82C268.81 198.22 267.74 198.42 266.44 198.42ZM260.83 189.54H271.39C271.31 187.96 270.8 186.75 269.86 185.91C268.92 185.05 267.71 184.62 266.23 184.62C264.77 184.62 263.56 185.05 262.6 185.91C261.64 186.75 261.05 187.96 260.83 189.54ZM285.384 198V183.42H287.184V198H285.384ZM286.284 180.9C285.844 180.9 285.474 180.75 285.174 180.45C284.874 180.15 284.724 179.78 284.724 179.34C284.724 178.88 284.874 178.51 285.174 178.23C285.474 177.93 285.844 177.78 286.284 177.78C286.744 177.78 287.114 177.93 287.394 178.23C287.694 178.51 287.844 178.88 287.844 179.34C287.844 179.78 287.694 180.15 287.394 180.45C287.114 180.75 286.744 180.9 286.284 180.9ZM298.264 198.42C296.504 198.42 294.994 198 293.734 197.16C292.494 196.32 291.734 194.93 291.454 192.99L293.224 192.66C293.384 193.72 293.704 194.56 294.184 195.18C294.684 195.78 295.284 196.21 295.984 196.47C296.704 196.73 297.464 196.86 298.264 196.86C299.464 196.86 300.424 196.62 301.144 196.14C301.884 195.64 302.254 194.96 302.254 194.1C302.254 193.22 301.904 192.61 301.204 192.27C300.524 191.93 299.614 191.66 298.474 191.46L297.094 191.22C296.174 191.06 295.344 190.82 294.604 190.5C293.864 190.16 293.274 189.71 292.834 189.15C292.414 188.59 292.204 187.89 292.204 187.05C292.204 185.79 292.694 184.8 293.674 184.08C294.674 183.36 295.994 183 297.634 183C299.294 183 300.624 183.38 301.624 184.14C302.644 184.88 303.284 185.96 303.544 187.38L301.864 187.74C301.664 186.58 301.184 185.76 300.424 185.28C299.684 184.8 298.754 184.56 297.634 184.56C296.534 184.56 295.654 184.77 294.994 185.19C294.334 185.61 294.004 186.23 294.004 187.05C294.004 187.85 294.304 188.44 294.904 188.82C295.504 189.18 296.324 189.45 297.364 189.63L298.744 189.87C299.744 190.03 300.644 190.27 301.444 190.59C302.244 190.89 302.874 191.32 303.334 191.88C303.814 192.44 304.054 193.18 304.054 194.1C304.054 195.48 303.534 196.55 302.494 197.31C301.454 198.05 300.044 198.42 298.264 198.42ZM322.778 198.42C321.278 198.42 319.968 198.11 318.848 197.49C317.748 196.85 316.888 195.96 316.268 194.82C315.648 193.68 315.338 192.37 315.338 190.89V190.53C315.338 189.03 315.648 187.72 316.268 186.6C316.888 185.46 317.738 184.58 318.818 183.96C319.918 183.32 321.168 183 322.568 183C323.928 183 325.128 183.29 326.168 183.87C327.228 184.43 328.058 185.25 328.658 186.33C329.258 187.39 329.558 188.66 329.558 190.14V191.1H317.138C317.198 192.92 317.748 194.33 318.788 195.33C319.848 196.31 321.178 196.8 322.778 196.8C324.138 196.8 325.188 196.49 325.928 195.87C326.688 195.25 327.268 194.49 327.668 193.59L329.288 194.31C328.988 194.97 328.568 195.62 328.028 196.26C327.508 196.88 326.828 197.4 325.988 197.82C325.148 198.22 324.078 198.42 322.778 198.42ZM317.168 189.54H327.728C327.648 187.96 327.138 186.75 326.198 185.91C325.258 185.05 324.048 184.62 322.568 184.62C321.108 184.62 319.898 185.05 318.938 185.91C317.978 186.75 317.388 187.96 317.168 189.54ZM333.988 198V183.42H335.728V186.12H336.088C336.448 185.34 337.038 184.65 337.858 184.05C338.678 183.43 339.868 183.12 341.428 183.12C342.488 183.12 343.458 183.34 344.338 183.78C345.218 184.22 345.918 184.89 346.438 185.79C346.978 186.67 347.248 187.78 347.248 189.12V198H345.448V189.24C345.448 187.64 345.048 186.49 344.248 185.79C343.448 185.09 342.378 184.74 341.038 184.74C339.538 184.74 338.288 185.24 337.288 186.24C336.288 187.22 335.788 188.71 335.788 190.71V198H333.988ZM357.227 198C356.447 198 355.857 197.8 355.457 197.4C355.077 197 354.887 196.44 354.887 195.72V185.04H350.207V183.42H354.887V177.96H356.687V183.42H361.787V185.04H356.687V195.48C356.687 196.08 356.987 196.38 357.587 196.38H361.007V198H357.227ZM365.804 198V183.42H367.604V198H365.804ZM366.704 180.9C366.264 180.9 365.894 180.75 365.594 180.45C365.294 180.15 365.144 179.78 365.144 179.34C365.144 178.88 365.294 178.51 365.594 178.23C365.894 177.93 366.264 177.78 366.704 177.78C367.164 177.78 367.534 177.93 367.814 178.23C368.114 178.51 368.264 178.88 368.264 179.34C368.264 179.78 368.114 180.15 367.814 180.45C367.534 180.75 367.164 180.9 366.704 180.9ZM378.174 198C377.394 198 376.804 197.8 376.404 197.4C376.024 197 375.834 196.44 375.834 195.72V185.04H371.154V183.42H375.834V177.96H377.634V183.42H382.734V185.04H377.634V195.48C377.634 196.08 377.934 196.38 378.534 196.38H381.954V198H378.174ZM386.751 198V177H388.551V198H386.751ZM400.561 198.42C399.061 198.42 397.751 198.11 396.631 197.49C395.531 196.85 394.671 195.96 394.051 194.82C393.431 193.68 393.121 192.37 393.121 190.89V190.53C393.121 189.03 393.431 187.72 394.051 186.6C394.671 185.46 395.521 184.58 396.601 183.96C397.701 183.32 398.951 183 400.351 183C401.711 183 402.911 183.29 403.951 183.87C405.011 184.43 405.841 185.25 406.441 186.33C407.041 187.39 407.341 188.66 407.341 190.14V191.1H394.921C394.981 192.92 395.531 194.33 396.571 195.33C397.631 196.31 398.961 196.8 400.561 196.8C401.921 196.8 402.971 196.49 403.711 195.87C404.471 195.25 405.051 194.49 405.451 193.59L407.071 194.31C406.771 194.97 406.351 195.62 405.811 196.26C405.291 196.88 404.611 197.4 403.771 197.82C402.931 198.22 401.861 198.42 400.561 198.42ZM394.951 189.54H405.511C405.431 187.96 404.921 186.75 403.981 185.91C403.041 185.05 401.831 184.62 400.351 184.62C398.891 184.62 397.681 185.05 396.721 185.91C395.761 186.75 395.171 187.96 394.951 189.54ZM418.071 198.42C416.771 198.42 415.591 198.12 414.531 197.52C413.471 196.9 412.621 196.03 411.981 194.91C411.361 193.77 411.051 192.43 411.051 190.89V190.53C411.051 188.99 411.361 187.66 411.981 186.54C412.601 185.4 413.441 184.53 414.501 183.93C415.581 183.31 416.771 183 418.071 183C419.151 183 420.061 183.15 420.801 183.45C421.541 183.73 422.141 184.1 422.601 184.56C423.081 185 423.451 185.47 423.711 185.97H424.071V177H425.871V198H424.131V195.33H423.771C423.351 196.13 422.691 196.85 421.791 197.49C420.911 198.11 419.671 198.42 418.071 198.42ZM418.491 196.8C420.151 196.8 421.491 196.27 422.511 195.21C423.551 194.15 424.071 192.69 424.071 190.83V190.59C424.071 188.73 423.551 187.27 422.511 186.21C421.491 185.15 420.151 184.62 418.491 184.62C416.851 184.62 415.511 185.15 414.471 186.21C413.431 187.27 412.911 188.73 412.911 190.59V190.83C412.911 192.69 413.431 194.15 414.471 195.21C415.511 196.27 416.851 196.8 418.491 196.8ZM438.9 198V183.42H440.7V198H438.9ZM439.8 180.9C439.36 180.9 438.99 180.75 438.69 180.45C438.39 180.15 438.24 179.78 438.24 179.34C438.24 178.88 438.39 178.51 438.69 178.23C438.99 177.93 439.36 177.78 439.8 177.78C440.26 177.78 440.63 177.93 440.91 178.23C441.21 178.51 441.36 178.88 441.36 179.34C441.36 179.78 441.21 180.15 440.91 180.45C440.63 180.75 440.26 180.9 439.8 180.9ZM445.99 198V183.42H447.73V186.12H448.09C448.45 185.34 449.04 184.65 449.86 184.05C450.68 183.43 451.87 183.12 453.43 183.12C454.49 183.12 455.46 183.34 456.34 183.78C457.22 184.22 457.92 184.89 458.44 185.79C458.98 186.67 459.25 187.78 459.25 189.12V198H457.45V189.24C457.45 187.64 457.05 186.49 456.25 185.79C455.45 185.09 454.38 184.74 453.04 184.74C451.54 184.74 450.29 185.24 449.29 186.24C448.29 187.22 447.79 188.71 447.79 190.71V198H445.99ZM475.153 198V185.04H470.353V183.42H475.153V179.28C475.153 178.56 475.343 178 475.723 177.6C476.123 177.2 476.713 177 477.493 177H481.093V178.62H477.853C477.253 178.62 476.953 178.92 476.953 179.52V183.42H481.873V185.04H476.953V198H475.153ZM491.033 198.3C489.993 198.3 489.023 198.08 488.123 197.64C487.243 197.2 486.533 196.54 485.993 195.66C485.473 194.76 485.213 193.64 485.213 192.3V183.42H487.013V192.18C487.013 193.76 487.413 194.91 488.213 195.63C489.013 196.33 490.083 196.68 491.423 196.68C492.923 196.68 494.173 196.19 495.173 195.21C496.173 194.21 496.673 192.71 496.673 190.71V183.42H498.473V198H496.733V195.3H496.373C496.013 196.08 495.423 196.78 494.603 197.4C493.783 198 492.593 198.3 491.033 198.3ZM503.763 198V177H505.563V198H503.763ZM510.853 198V177H512.653V198H510.853ZM532.397 198.42C530.897 198.42 529.587 198.11 528.467 197.49C527.367 196.85 526.507 195.96 525.887 194.82C525.267 193.68 524.957 192.37 524.957 190.89V190.53C524.957 189.03 525.267 187.72 525.887 186.6C526.507 185.46 527.357 184.58 528.437 183.96C529.537 183.32 530.787 183 532.187 183C533.547 183 534.747 183.29 535.787 183.87C536.847 184.43 537.677 185.25 538.277 186.33C538.877 187.39 539.177 188.66 539.177 190.14V191.1H526.757C526.817 192.92 527.367 194.33 528.407 195.33C529.467 196.31 530.797 196.8 532.397 196.8C533.757 196.8 534.807 196.49 535.547 195.87C536.307 195.25 536.887 194.49 537.287 193.59L538.907 194.31C538.607 194.97 538.187 195.62 537.647 196.26C537.127 196.88 536.447 197.4 535.607 197.82C534.767 198.22 533.697 198.42 532.397 198.42ZM526.787 189.54H537.347C537.267 187.96 536.757 186.75 535.817 185.91C534.877 185.05 533.667 184.62 532.187 184.62C530.727 184.62 529.517 185.05 528.557 185.91C527.597 186.75 527.007 187.96 526.787 189.54ZM555.907 204V195.45H555.547C555.287 195.93 554.917 196.4 554.437 196.86C553.977 197.32 553.377 197.7 552.637 198C551.897 198.28 550.987 198.42 549.907 198.42C548.607 198.42 547.417 198.12 546.337 197.52C545.277 196.9 544.437 196.03 543.817 194.91C543.197 193.77 542.887 192.43 542.887 190.89V190.53C542.887 188.97 543.197 187.63 543.817 186.51C544.457 185.39 545.307 184.53 546.367 183.93C547.427 183.31 548.607 183 549.907 183C551.507 183 552.747 183.32 553.627 183.96C554.527 184.58 555.187 185.29 555.607 186.09H555.967V183.42H557.707V204H555.907ZM550.327 196.8C551.987 196.8 553.327 196.27 554.347 195.21C555.387 194.15 555.907 192.69 555.907 190.83V190.59C555.907 188.73 555.387 187.27 554.347 186.21C553.327 185.15 551.987 184.62 550.327 184.62C548.687 184.62 547.347 185.15 546.307 186.21C545.267 187.27 544.747 188.73 544.747 190.59V190.83C544.747 192.69 545.267 194.15 546.307 195.21C547.347 196.27 548.687 196.8 550.327 196.8ZM568.611 198.3C567.571 198.3 566.601 198.08 565.701 197.64C564.821 197.2 564.111 196.54 563.571 195.66C563.051 194.76 562.791 193.64 562.791 192.3V183.42H564.591V192.18C564.591 193.76 564.991 194.91 565.791 195.63C566.591 196.33 567.661 196.68 569.001 196.68C570.501 196.68 571.751 196.19 572.751 195.21C573.751 194.21 574.251 192.71 574.251 190.71V183.42H576.051V198H574.311V195.3H573.951C573.591 196.08 573.001 196.78 572.181 197.4C571.361 198 570.171 198.3 568.611 198.3ZM585.811 198.42C584.791 198.42 583.861 198.25 583.021 197.91C582.201 197.55 581.551 197.03 581.071 196.35C580.591 195.67 580.351 194.85 580.351 193.89C580.351 192.91 580.591 192.1 581.071 191.46C581.551 190.82 582.201 190.34 583.021 190.02C583.841 189.7 584.751 189.54 585.751 189.54H591.091V188.37C591.091 187.19 590.751 186.27 590.071 185.61C589.391 184.95 588.401 184.62 587.101 184.62C585.821 184.62 584.801 184.94 584.041 185.58C583.301 186.2 582.801 187.04 582.541 188.1L580.801 187.59C581.041 186.73 581.421 185.96 581.941 185.28C582.461 184.58 583.151 184.03 584.011 183.63C584.871 183.21 585.901 183 587.101 183C588.941 183 590.361 183.48 591.361 184.44C592.381 185.4 592.891 186.74 592.891 188.46V195.54C592.891 196.14 593.171 196.44 593.731 196.44H595.141V198H593.221C592.601 198 592.111 197.82 591.751 197.46C591.391 197.08 591.211 196.57 591.211 195.93V195.72H590.911C590.651 196.16 590.311 196.59 589.891 197.01C589.491 197.43 588.961 197.77 588.301 198.03C587.641 198.29 586.811 198.42 585.811 198.42ZM585.931 196.8C587.471 196.8 588.711 196.34 589.651 195.42C590.611 194.48 591.091 193.16 591.091 191.46V191.1H585.781C584.741 191.1 583.871 191.33 583.171 191.79C582.491 192.23 582.151 192.92 582.151 193.86C582.151 194.8 582.501 195.53 583.201 196.05C583.921 196.55 584.831 196.8 585.931 196.8ZM598.568 198V177H600.368V198H598.568ZM605.658 198V183.42H607.458V198H605.658ZM606.558 180.9C606.118 180.9 605.748 180.75 605.448 180.45C605.148 180.15 604.998 179.78 604.998 179.34C604.998 178.88 605.148 178.51 605.448 178.23C605.748 177.93 606.118 177.78 606.558 177.78C607.018 177.78 607.388 177.93 607.668 178.23C607.968 178.51 608.118 178.88 608.118 179.34C608.118 179.78 607.968 180.15 607.668 180.45C607.388 180.75 607.018 180.9 606.558 180.9ZM618.027 198C617.247 198 616.657 197.8 616.257 197.4C615.877 197 615.687 196.44 615.687 195.72V185.04H611.007V183.42H615.687V177.96H617.487V183.42H622.587V185.04H617.487V195.48C617.487 196.08 617.787 196.38 618.387 196.38H621.807V198H618.027ZM628.435 204V202.38H636.955C637.555 202.38 637.855 202.08 637.855 201.48V195.48H637.495C637.255 195.96 636.915 196.42 636.475 196.86C636.055 197.28 635.495 197.63 634.795 197.91C634.115 198.17 633.255 198.3 632.215 198.3C631.175 198.3 630.205 198.08 629.305 197.64C628.425 197.2 627.715 196.54 627.175 195.66C626.655 194.78 626.395 193.67 626.395 192.33V183.42H628.195V192.21C628.195 193.79 628.595 194.93 629.395 195.63C630.195 196.33 631.265 196.68 632.605 196.68C634.105 196.68 635.355 196.19 636.355 195.21C637.355 194.23 637.855 192.74 637.855 190.74V183.42H639.655V201.72C639.655 202.44 639.455 203 639.055 203.4C638.675 203.8 638.095 204 637.315 204H628.435ZM657.959 198C657.179 198 656.589 197.8 656.189 197.4C655.809 197 655.619 196.44 655.619 195.72V185.04H650.939V183.42H655.619V177.96H657.419V183.42H662.519V185.04H657.419V195.48C657.419 196.08 657.719 196.38 658.319 196.38H661.739V198H657.959ZM672.669 198.42C671.189 198.42 669.889 198.11 668.769 197.49C667.669 196.85 666.809 195.97 666.189 194.85C665.589 193.71 665.289 192.39 665.289 190.89V190.53C665.289 189.03 665.589 187.72 666.189 186.6C666.809 185.46 667.669 184.58 668.769 183.96C669.889 183.32 671.189 183 672.669 183C674.149 183 675.439 183.32 676.539 183.96C677.659 184.58 678.519 185.46 679.119 186.6C679.739 187.72 680.049 189.03 680.049 190.53V190.89C680.049 192.39 679.739 193.71 679.119 194.85C678.519 195.97 677.659 196.85 676.539 197.49C675.439 198.11 674.149 198.42 672.669 198.42ZM672.669 196.8C674.389 196.8 675.749 196.26 676.749 195.18C677.749 194.08 678.249 192.63 678.249 190.83V190.59C678.249 188.79 677.749 187.35 676.749 186.27C675.749 185.17 674.389 184.62 672.669 184.62C670.969 184.62 669.609 185.17 668.589 186.27C667.589 187.35 667.089 188.79 667.089 190.59V190.83C667.089 192.63 667.589 194.08 668.589 195.18C669.609 196.26 670.969 196.8 672.669 196.8ZM696.817 198.42C695.797 198.42 694.867 198.25 694.027 197.91C693.207 197.55 692.557 197.03 692.077 196.35C691.597 195.67 691.357 194.85 691.357 193.89C691.357 192.91 691.597 192.1 692.077 191.46C692.557 190.82 693.207 190.34 694.027 190.02C694.847 189.7 695.757 189.54 696.757 189.54H702.097V188.37C702.097 187.19 701.757 186.27 701.077 185.61C700.397 184.95 699.407 184.62 698.107 184.62C696.827 184.62 695.807 184.94 695.047 185.58C694.307 186.2 693.807 187.04 693.547 188.1L691.807 187.59C692.047 186.73 692.427 185.96 692.947 185.28C693.467 184.58 694.157 184.03 695.017 183.63C695.877 183.21 696.907 183 698.107 183C699.947 183 701.367 183.48 702.367 184.44C703.387 185.4 703.897 186.74 703.897 188.46V195.54C703.897 196.14 704.177 196.44 704.737 196.44H706.147V198H704.227C703.607 198 703.117 197.82 702.757 197.46C702.397 197.08 702.217 196.57 702.217 195.93V195.72H701.917C701.657 196.16 701.317 196.59 700.897 197.01C700.497 197.43 699.967 197.77 699.307 198.03C698.647 198.29 697.817 198.42 696.817 198.42ZM696.937 196.8C698.477 196.8 699.717 196.34 700.657 195.42C701.617 194.48 702.097 193.16 702.097 191.46V191.1H696.787C695.747 191.1 694.877 191.33 694.177 191.79C693.497 192.23 693.157 192.92 693.157 193.86C693.157 194.8 693.507 195.53 694.207 196.05C694.927 196.55 695.837 196.8 696.937 196.8ZM720.368 198V185.04H715.568V183.42H720.368V179.28C720.368 178.56 720.558 178 720.938 177.6C721.338 177.2 721.928 177 722.708 177H726.308V178.62H723.068C722.468 178.62 722.168 178.92 722.168 179.52V183.42H727.088V185.04H722.168V198H720.368ZM734.815 198.42C733.795 198.42 732.865 198.25 732.025 197.91C731.205 197.55 730.555 197.03 730.075 196.35C729.595 195.67 729.355 194.85 729.355 193.89C729.355 192.91 729.595 192.1 730.075 191.46C730.555 190.82 731.205 190.34 732.025 190.02C732.845 189.7 733.755 189.54 734.755 189.54H740.095V188.37C740.095 187.19 739.755 186.27 739.075 185.61C738.395 184.95 737.405 184.62 736.105 184.62C734.825 184.62 733.805 184.94 733.045 185.58C732.305 186.2 731.805 187.04 731.545 188.1L729.805 187.59C730.045 186.73 730.425 185.96 730.945 185.28C731.465 184.58 732.155 184.03 733.015 183.63C733.875 183.21 734.905 183 736.105 183C737.945 183 739.365 183.48 740.365 184.44C741.385 185.4 741.895 186.74 741.895 188.46V195.54C741.895 196.14 742.175 196.44 742.735 196.44H744.145V198H742.225C741.605 198 741.115 197.82 740.755 197.46C740.395 197.08 740.215 196.57 740.215 195.93V195.72H739.915C739.655 196.16 739.315 196.59 738.895 197.01C738.495 197.43 737.965 197.77 737.305 198.03C736.645 198.29 735.815 198.42 734.815 198.42ZM734.935 196.8C736.475 196.8 737.715 196.34 738.655 195.42C739.615 194.48 740.095 193.16 740.095 191.46V191.1H734.785C733.745 191.1 732.875 191.33 732.175 191.79C731.495 192.23 731.155 192.92 731.155 193.86C731.155 194.8 731.505 195.53 732.205 196.05C732.925 196.55 733.835 196.8 734.935 196.8ZM747.572 198V183.42H749.372V198H747.572ZM748.472 180.9C748.032 180.9 747.662 180.75 747.362 180.45C747.062 180.15 746.912 179.78 746.912 179.34C746.912 178.88 747.062 178.51 747.362 178.23C747.662 177.93 748.032 177.78 748.472 177.78C748.932 177.78 749.302 177.93 749.582 178.23C749.882 178.51 750.032 178.88 750.032 179.34C750.032 179.78 749.882 180.15 749.582 180.45C749.302 180.75 748.932 180.9 748.472 180.9ZM754.661 198V183.42H756.401V185.25H756.761C757.041 184.59 757.451 184.11 757.991 183.81C758.551 183.51 759.321 183.36 760.301 183.36H762.011V185.04H760.091C758.991 185.04 758.111 185.35 757.451 185.97C756.791 186.59 756.461 187.56 756.461 188.88V198H754.661ZM777.94 198.42C776.92 198.42 775.99 198.25 775.15 197.91C774.33 197.55 773.68 197.03 773.2 196.35C772.72 195.67 772.48 194.85 772.48 193.89C772.48 192.91 772.72 192.1 773.2 191.46C773.68 190.82 774.33 190.34 775.15 190.02C775.97 189.7 776.88 189.54 777.88 189.54H783.22V188.37C783.22 187.19 782.88 186.27 782.2 185.61C781.52 184.95 780.53 184.62 779.23 184.62C777.95 184.62 776.93 184.94 776.17 185.58C775.43 186.2 774.93 187.04 774.67 188.1L772.93 187.59C773.17 186.73 773.55 185.96 774.07 185.28C774.59 184.58 775.28 184.03 776.14 183.63C777 183.21 778.03 183 779.23 183C781.07 183 782.49 183.48 783.49 184.44C784.51 185.4 785.02 186.74 785.02 188.46V195.54C785.02 196.14 785.3 196.44 785.86 196.44H787.27V198H785.35C784.73 198 784.24 197.82 783.88 197.46C783.52 197.08 783.34 196.57 783.34 195.93V195.72H783.04C782.78 196.16 782.44 196.59 782.02 197.01C781.62 197.43 781.09 197.77 780.43 198.03C779.77 198.29 778.94 198.42 777.94 198.42ZM778.06 196.8C779.6 196.8 780.84 196.34 781.78 195.42C782.74 194.48 783.22 193.16 783.22 191.46V191.1H777.91C776.87 191.1 776 191.33 775.3 191.79C774.62 192.23 774.28 192.92 774.28 193.86C774.28 194.8 774.63 195.53 775.33 196.05C776.05 196.55 776.96 196.8 778.06 196.8ZM790.697 198V183.42H792.437V186.12H792.797C793.157 185.34 793.747 184.65 794.567 184.05C795.387 183.43 796.577 183.12 798.137 183.12C799.197 183.12 800.167 183.34 801.047 183.78C801.927 184.22 802.627 184.89 803.147 185.79C803.687 186.67 803.957 187.78 803.957 189.12V198H802.157V189.24C802.157 187.64 801.757 186.49 800.957 185.79C800.157 185.09 799.087 184.74 797.747 184.74C796.247 184.74 794.997 185.24 793.997 186.24C792.997 187.22 792.497 188.71 792.497 190.71V198H790.697ZM815.366 198.42C814.066 198.42 812.886 198.12 811.826 197.52C810.766 196.9 809.916 196.03 809.276 194.91C808.656 193.77 808.346 192.43 808.346 190.89V190.53C808.346 188.99 808.656 187.66 809.276 186.54C809.896 185.4 810.736 184.53 811.796 183.93C812.876 183.31 814.066 183 815.366 183C816.446 183 817.356 183.15 818.096 183.45C818.836 183.73 819.436 184.1 819.896 184.56C820.376 185 820.746 185.47 821.006 185.97H821.366V177H823.166V198H821.426V195.33H821.066C820.646 196.13 819.986 196.85 819.086 197.49C818.206 198.11 816.966 198.42 815.366 198.42ZM815.786 196.8C817.446 196.8 818.786 196.27 819.806 195.21C820.846 194.15 821.366 192.69 821.366 190.83V190.59C821.366 188.73 820.846 187.27 819.806 186.21C818.786 185.15 817.446 184.62 815.786 184.62C814.146 184.62 812.806 185.15 811.766 186.21C810.726 187.27 810.206 188.73 810.206 190.59V190.83C810.206 192.69 810.726 194.15 811.766 195.21C812.806 196.27 814.146 196.8 815.786 196.8ZM62.64 242V221.42H64.38V224.09H64.74C65.16 223.29 65.81 222.58 66.69 221.96C67.59 221.32 68.84 221 70.44 221C71.74 221 72.92 221.31 73.98 221.93C75.04 222.53 75.88 223.39 76.5 224.51C77.14 225.63 77.46 226.97 77.46 228.53V228.89C77.46 230.43 77.15 231.77 76.53 232.91C75.91 234.03 75.07 234.9 74.01 235.52C72.95 236.12 71.76 236.42 70.44 236.42C69.38 236.42 68.47 236.28 67.71 236C66.97 235.7 66.36 235.32 65.88 234.86C65.42 234.4 65.06 233.93 64.8 233.45H64.44V242H62.64ZM70.02 234.8C71.68 234.8 73.02 234.27 74.04 233.21C75.08 232.15 75.6 230.69 75.6 228.83V228.59C75.6 226.73 75.08 225.27 74.04 224.21C73.02 223.15 71.68 222.62 70.02 222.62C68.38 222.62 67.04 223.15 66 224.21C64.96 225.27 64.44 226.73 64.44 228.59V228.83C64.44 230.69 64.96 232.15 66 233.21C67.04 234.27 68.38 234.8 70.02 234.8ZM87.6445 236.3C86.6045 236.3 85.6345 236.08 84.7345 235.64C83.8545 235.2 83.1445 234.54 82.6045 233.66C82.0845 232.76 81.8245 231.64 81.8245 230.3V221.42H83.6245V230.18C83.6245 231.76 84.0245 232.91 84.8245 233.63C85.6245 234.33 86.6945 234.68 88.0345 234.68C89.5345 234.68 90.7845 234.19 91.7845 233.21C92.7845 232.21 93.2845 230.71 93.2845 228.71V221.42H95.0845V236H93.3445V233.3H92.9845C92.6245 234.08 92.0345 234.78 91.2145 235.4C90.3945 236 89.2045 236.3 87.6445 236.3ZM108.174 236.42C106.574 236.42 105.324 236.11 104.424 235.49C103.544 234.85 102.894 234.13 102.474 233.33H102.114V236H100.374V215H102.174V223.97H102.534C102.794 223.47 103.154 223 103.614 222.56C104.094 222.1 104.704 221.73 105.444 221.45C106.204 221.15 107.114 221 108.174 221C109.494 221 110.684 221.31 111.744 221.93C112.804 222.53 113.644 223.4 114.264 224.54C114.884 225.66 115.194 226.99 115.194 228.53V228.89C115.194 230.43 114.874 231.77 114.234 232.91C113.614 234.03 112.774 234.9 111.714 235.52C110.654 236.12 109.474 236.42 108.174 236.42ZM107.754 234.8C109.414 234.8 110.754 234.27 111.774 233.21C112.814 232.15 113.334 230.69 113.334 228.83V228.59C113.334 226.73 112.814 225.27 111.774 224.21C110.754 223.15 109.414 222.62 107.754 222.62C106.114 222.62 104.774 223.15 103.734 224.21C102.694 225.27 102.174 226.73 102.174 228.59V228.83C102.174 230.69 102.694 232.15 103.734 233.21C104.774 234.27 106.114 234.8 107.754 234.8ZM119.769 236V215H121.569V236H119.769ZM126.859 236V221.42H128.659V236H126.859ZM127.759 218.9C127.319 218.9 126.949 218.75 126.649 218.45C126.349 218.15 126.199 217.78 126.199 217.34C126.199 216.88 126.349 216.51 126.649 216.23C126.949 215.93 127.319 215.78 127.759 215.78C128.219 215.78 128.589 215.93 128.869 216.23C129.169 216.51 129.319 216.88 129.319 217.34C129.319 217.78 129.169 218.15 128.869 218.45C128.589 218.75 128.219 218.9 127.759 218.9ZM140.609 236.42C139.189 236.42 137.919 236.12 136.799 235.52C135.699 234.9 134.829 234.02 134.189 232.88C133.549 231.74 133.229 230.4 133.229 228.86V228.56C133.229 227 133.549 225.66 134.189 224.54C134.829 223.4 135.699 222.53 136.799 221.93C137.919 221.31 139.189 221 140.609 221C142.009 221 143.189 221.27 144.149 221.81C145.129 222.33 145.889 223.02 146.429 223.88C146.989 224.72 147.339 225.61 147.479 226.55L145.709 226.91C145.609 226.13 145.359 225.42 144.959 224.78C144.559 224.12 143.999 223.6 143.279 223.22C142.559 222.82 141.669 222.62 140.609 222.62C139.549 222.62 138.599 222.87 137.759 223.37C136.919 223.85 136.249 224.54 135.749 225.44C135.269 226.32 135.029 227.37 135.029 228.59V228.83C135.029 230.05 135.269 231.11 135.749 232.01C136.249 232.89 136.919 233.58 137.759 234.08C138.599 234.56 139.549 234.8 140.609 234.8C142.209 234.8 143.429 234.39 144.269 233.57C145.109 232.73 145.629 231.71 145.829 230.51L147.599 230.87C147.419 231.81 147.039 232.71 146.459 233.57C145.899 234.41 145.129 235.1 144.149 235.64C143.189 236.16 142.009 236.42 140.609 236.42ZM159.759 236V215H161.559V223.97H161.919C162.159 223.49 162.489 223.04 162.909 222.62C163.349 222.18 163.909 221.83 164.589 221.57C165.289 221.29 166.159 221.15 167.199 221.15C168.259 221.15 169.229 221.37 170.109 221.81C170.989 222.25 171.689 222.91 172.209 223.79C172.749 224.67 173.019 225.78 173.019 227.12V236H171.219V227.24C171.219 225.64 170.819 224.5 170.019 223.82C169.219 223.12 168.149 222.77 166.809 222.77C165.309 222.77 164.059 223.26 163.059 224.24C162.059 225.22 161.559 226.71 161.559 228.71V236H159.759ZM184.848 236.42C183.348 236.42 182.038 236.11 180.918 235.49C179.818 234.85 178.958 233.96 178.338 232.82C177.718 231.68 177.408 230.37 177.408 228.89V228.53C177.408 227.03 177.718 225.72 178.338 224.6C178.958 223.46 179.808 222.58 180.888 221.96C181.988 221.32 183.238 221 184.638 221C185.998 221 187.198 221.29 188.238 221.87C189.298 222.43 190.128 223.25 190.728 224.33C191.328 225.39 191.628 226.66 191.628 228.14V229.1H179.208C179.268 230.92 179.818 232.33 180.858 233.33C181.918 234.31 183.248 234.8 184.848 234.8C186.208 234.8 187.258 234.49 187.998 233.87C188.758 233.25 189.338 232.49 189.738 231.59L191.358 232.31C191.058 232.97 190.638 233.62 190.098 234.26C189.578 234.88 188.898 235.4 188.058 235.82C187.218 236.22 186.148 236.42 184.848 236.42ZM179.238 227.54H189.798C189.718 225.96 189.208 224.75 188.268 223.91C187.328 223.05 186.118 222.62 184.638 222.62C183.178 222.62 181.968 223.05 181.008 223.91C180.048 224.75 179.458 225.96 179.238 227.54ZM200.528 236.42C199.508 236.42 198.578 236.25 197.738 235.91C196.918 235.55 196.268 235.03 195.788 234.35C195.308 233.67 195.068 232.85 195.068 231.89C195.068 230.91 195.308 230.1 195.788 229.46C196.268 228.82 196.918 228.34 197.738 228.02C198.558 227.7 199.468 227.54 200.468 227.54H205.808V226.37C205.808 225.19 205.468 224.27 204.788 223.61C204.108 222.95 203.118 222.62 201.818 222.62C200.538 222.62 199.518 222.94 198.758 223.58C198.018 224.2 197.518 225.04 197.258 226.1L195.518 225.59C195.758 224.73 196.138 223.96 196.658 223.28C197.178 222.58 197.868 222.03 198.728 221.63C199.588 221.21 200.618 221 201.818 221C203.658 221 205.078 221.48 206.078 222.44C207.098 223.4 207.608 224.74 207.608 226.46V233.54C207.608 234.14 207.888 234.44 208.448 234.44H209.858V236H207.938C207.318 236 206.828 235.82 206.468 235.46C206.108 235.08 205.928 234.57 205.928 233.93V233.72H205.628C205.368 234.16 205.028 234.59 204.608 235.01C204.208 235.43 203.678 235.77 203.018 236.03C202.358 236.29 201.528 236.42 200.528 236.42ZM200.648 234.8C202.188 234.8 203.428 234.34 204.368 233.42C205.328 232.48 205.808 231.16 205.808 229.46V229.1H200.498C199.458 229.1 198.588 229.33 197.888 229.79C197.208 230.23 196.868 230.92 196.868 231.86C196.868 232.8 197.218 233.53 197.918 234.05C198.638 234.55 199.548 234.8 200.648 234.8ZM213.285 236V221.42H215.025V223.25H215.385C215.665 222.59 216.075 222.11 216.615 221.81C217.175 221.51 217.945 221.36 218.925 221.36H220.635V223.04H218.715C217.615 223.04 216.735 223.35 216.075 223.97C215.415 224.59 215.085 225.56 215.085 226.88V236H213.285ZM224.359 236V221.42H226.159V236H224.359ZM225.259 218.9C224.819 218.9 224.449 218.75 224.149 218.45C223.849 218.15 223.699 217.78 223.699 217.34C223.699 216.88 223.849 216.51 224.149 216.23C224.449 215.93 224.819 215.78 225.259 215.78C225.719 215.78 226.089 215.93 226.369 216.23C226.669 216.51 226.819 216.88 226.819 217.34C226.819 217.78 226.669 218.15 226.369 218.45C226.089 218.75 225.719 218.9 225.259 218.9ZM231.449 236V221.42H233.189V224.12H233.549C233.909 223.34 234.499 222.65 235.319 222.05C236.139 221.43 237.329 221.12 238.889 221.12C239.949 221.12 240.919 221.34 241.799 221.78C242.679 222.22 243.379 222.89 243.899 223.79C244.439 224.67 244.709 225.78 244.709 227.12V236H242.909V227.24C242.909 225.64 242.509 224.49 241.709 223.79C240.909 223.09 239.839 222.74 238.499 222.74C236.999 222.74 235.749 223.24 234.749 224.24C233.749 225.22 233.249 226.71 233.249 228.71V236H231.449ZM249.098 228.77V228.41C249.098 226.87 249.408 225.55 250.028 224.45C250.668 223.35 251.518 222.5 252.578 221.9C253.638 221.3 254.818 221 256.118 221C257.718 221 258.958 221.32 259.838 221.96C260.738 222.58 261.398 223.29 261.818 224.09H262.178V221.42H263.858V239.72C263.858 240.44 263.668 241 263.288 241.4C262.908 241.8 262.328 242 261.548 242H251.588V240.38H261.188C261.808 240.38 262.118 240.08 262.118 239.48V233.21H261.758C261.498 233.69 261.128 234.16 260.648 234.62C260.188 235.08 259.588 235.46 258.848 235.76C258.108 236.04 257.198 236.18 256.118 236.18C254.818 236.18 253.628 235.88 252.548 235.28C251.488 234.68 250.648 233.83 250.028 232.73C249.408 231.61 249.098 230.29 249.098 228.77ZM256.538 234.56C258.198 234.56 259.538 234.04 260.558 233C261.598 231.96 262.118 230.53 262.118 228.71V228.47C262.118 226.63 261.598 225.2 260.558 224.18C259.538 223.14 258.198 222.62 256.538 222.62C254.898 222.62 253.558 223.14 252.518 224.18C251.478 225.2 250.958 226.63 250.958 228.47V228.71C250.958 230.53 251.478 231.96 252.518 233C253.558 234.04 254.898 234.56 256.538 234.56ZM284.659 236.42C283.059 236.42 281.809 236.11 280.909 235.49C280.029 234.85 279.379 234.13 278.959 233.33H278.599V236H276.859V215H278.659V223.97H279.019C279.279 223.47 279.639 223 280.099 222.56C280.579 222.1 281.189 221.73 281.929 221.45C282.689 221.15 283.599 221 284.659 221C285.979 221 287.169 221.31 288.229 221.93C289.289 222.53 290.129 223.4 290.749 224.54C291.369 225.66 291.679 226.99 291.679 228.53V228.89C291.679 230.43 291.359 231.77 290.719 232.91C290.099 234.03 289.259 234.9 288.199 235.52C287.139 236.12 285.959 236.42 284.659 236.42ZM284.239 234.8C285.899 234.8 287.239 234.27 288.259 233.21C289.299 232.15 289.819 230.69 289.819 228.83V228.59C289.819 226.73 289.299 225.27 288.259 224.21C287.239 223.15 285.899 222.62 284.239 222.62C282.599 222.62 281.259 223.15 280.219 224.21C279.179 225.27 278.659 226.73 278.659 228.59V228.83C278.659 230.69 279.179 232.15 280.219 233.21C281.259 234.27 282.599 234.8 284.239 234.8ZM298.083 242V240.38H306.603C307.203 240.38 307.503 240.08 307.503 239.48V233.48H307.143C306.903 233.96 306.563 234.42 306.123 234.86C305.703 235.28 305.143 235.63 304.443 235.91C303.763 236.17 302.903 236.3 301.863 236.3C300.823 236.3 299.853 236.08 298.953 235.64C298.073 235.2 297.363 234.54 296.823 233.66C296.303 232.78 296.043 231.67 296.043 230.33V221.42H297.843V230.21C297.843 231.79 298.243 232.93 299.043 233.63C299.843 234.33 300.913 234.68 302.253 234.68C303.753 234.68 305.003 234.19 306.003 233.21C307.003 232.23 307.503 230.74 307.503 228.74V221.42H309.303V239.72C309.303 240.44 309.103 241 308.703 241.4C308.323 241.8 307.743 242 306.963 242H298.083ZM326.798 236.42C325.778 236.42 324.848 236.25 324.008 235.91C323.188 235.55 322.538 235.03 322.058 234.35C321.578 233.67 321.338 232.85 321.338 231.89C321.338 230.91 321.578 230.1 322.058 229.46C322.538 228.82 323.188 228.34 324.008 228.02C324.828 227.7 325.738 227.54 326.738 227.54H332.078V226.37C332.078 225.19 331.738 224.27 331.058 223.61C330.378 222.95 329.388 222.62 328.088 222.62C326.808 222.62 325.788 222.94 325.028 223.58C324.288 224.2 323.788 225.04 323.528 226.1L321.788 225.59C322.028 224.73 322.408 223.96 322.928 223.28C323.448 222.58 324.138 222.03 324.998 221.63C325.858 221.21 326.888 221 328.088 221C329.928 221 331.348 221.48 332.348 222.44C333.368 223.4 333.878 224.74 333.878 226.46V233.54C333.878 234.14 334.158 234.44 334.718 234.44H336.128V236H334.208C333.588 236 333.098 235.82 332.738 235.46C332.378 235.08 332.198 234.57 332.198 233.93V233.72H331.898C331.638 234.16 331.298 234.59 330.878 235.01C330.478 235.43 329.948 235.77 329.288 236.03C328.628 236.29 327.798 236.42 326.798 236.42ZM326.918 234.8C328.458 234.8 329.698 234.34 330.638 233.42C331.598 232.48 332.078 231.16 332.078 229.46V229.1H326.768C325.728 229.1 324.858 229.33 324.158 229.79C323.478 230.23 323.138 230.92 323.138 231.86C323.138 232.8 323.488 233.53 324.188 234.05C324.908 234.55 325.818 234.8 326.918 234.8ZM339.554 236V221.42H341.294V224.12H341.654C342.014 223.34 342.604 222.65 343.424 222.05C344.244 221.43 345.434 221.12 346.994 221.12C348.054 221.12 349.024 221.34 349.904 221.78C350.784 222.22 351.484 222.89 352.004 223.79C352.544 224.67 352.814 225.78 352.814 227.12V236H351.014V227.24C351.014 225.64 350.614 224.49 349.814 223.79C349.014 223.09 347.944 222.74 346.604 222.74C345.104 222.74 343.854 223.24 342.854 224.24C341.854 225.22 341.354 226.71 341.354 228.71V236H339.554ZM365.658 236V221.42H367.458V236H365.658ZM366.558 218.9C366.118 218.9 365.748 218.75 365.448 218.45C365.148 218.15 364.998 217.78 364.998 217.34C364.998 216.88 365.148 216.51 365.448 216.23C365.748 215.93 366.118 215.78 366.558 215.78C367.018 215.78 367.388 215.93 367.668 216.23C367.968 216.51 368.118 216.88 368.118 217.34C368.118 217.78 367.968 218.15 367.668 218.45C367.388 218.75 367.018 218.9 366.558 218.9ZM372.747 236V221.42H374.487V224.12H374.847C375.207 223.34 375.797 222.65 376.617 222.05C377.437 221.43 378.627 221.12 380.187 221.12C381.247 221.12 382.217 221.34 383.097 221.78C383.977 222.22 384.677 222.89 385.197 223.79C385.737 224.67 386.007 225.78 386.007 227.12V236H384.207V227.24C384.207 225.64 383.807 224.49 383.007 223.79C382.207 223.09 381.137 222.74 379.797 222.74C378.297 222.74 377.047 223.24 376.047 224.24C375.047 225.22 374.547 226.71 374.547 228.71V236H372.747ZM397.417 236.42C396.117 236.42 394.937 236.12 393.877 235.52C392.817 234.9 391.967 234.03 391.327 232.91C390.707 231.77 390.397 230.43 390.397 228.89V228.53C390.397 226.99 390.707 225.66 391.327 224.54C391.947 223.4 392.787 222.53 393.847 221.93C394.927 221.31 396.117 221 397.417 221C398.497 221 399.407 221.15 400.147 221.45C400.887 221.73 401.487 222.1 401.947 222.56C402.427 223 402.797 223.47 403.057 223.97H403.417V215H405.217V236H403.477V233.33H403.117C402.697 234.13 402.037 234.85 401.137 235.49C400.257 236.11 399.017 236.42 397.417 236.42ZM397.837 234.8C399.497 234.8 400.837 234.27 401.857 233.21C402.897 232.15 403.417 230.69 403.417 228.83V228.59C403.417 226.73 402.897 225.27 401.857 224.21C400.837 223.15 399.497 222.62 397.837 222.62C396.197 222.62 394.857 223.15 393.817 224.21C392.777 225.27 392.257 226.73 392.257 228.59V228.83C392.257 230.69 392.777 232.15 393.817 233.21C394.857 234.27 396.197 234.8 397.837 234.8ZM417.231 236.42C415.731 236.42 414.421 236.11 413.301 235.49C412.201 234.85 411.341 233.96 410.721 232.82C410.101 231.68 409.791 230.37 409.791 228.89V228.53C409.791 227.03 410.101 225.72 410.721 224.6C411.341 223.46 412.191 222.58 413.271 221.96C414.371 221.32 415.621 221 417.021 221C418.381 221 419.581 221.29 420.621 221.87C421.681 222.43 422.511 223.25 423.111 224.33C423.711 225.39 424.011 226.66 424.011 228.14V229.1H411.591C411.651 230.92 412.201 232.33 413.241 233.33C414.301 234.31 415.631 234.8 417.231 234.8C418.591 234.8 419.641 234.49 420.381 233.87C421.141 233.25 421.721 232.49 422.121 231.59L423.741 232.31C423.441 232.97 423.021 233.62 422.481 234.26C421.961 234.88 421.281 235.4 420.441 235.82C419.601 236.22 418.531 236.42 417.231 236.42ZM411.621 227.54H422.181C422.101 225.96 421.591 224.75 420.651 223.91C419.711 223.05 418.501 222.62 417.021 222.62C415.561 222.62 414.351 223.05 413.391 223.91C412.431 224.75 411.841 225.96 411.621 227.54ZM428.441 242V221.42H430.181V224.09H430.541C430.961 223.29 431.611 222.58 432.491 221.96C433.391 221.32 434.641 221 436.241 221C437.541 221 438.721 221.31 439.781 221.93C440.841 222.53 441.681 223.39 442.301 224.51C442.941 225.63 443.261 226.97 443.261 228.53V228.89C443.261 230.43 442.951 231.77 442.331 232.91C441.711 234.03 440.871 234.9 439.811 235.52C438.751 236.12 437.561 236.42 436.241 236.42C435.181 236.42 434.271 236.28 433.511 236C432.771 235.7 432.161 235.32 431.681 234.86C431.221 234.4 430.861 233.93 430.601 233.45H430.241V242H428.441ZM435.821 234.8C437.481 234.8 438.821 234.27 439.841 233.21C440.881 232.15 441.401 230.69 441.401 228.83V228.59C441.401 226.73 440.881 225.27 439.841 224.21C438.821 223.15 437.481 222.62 435.821 222.62C434.181 222.62 432.841 223.15 431.801 224.21C430.761 225.27 430.241 226.73 430.241 228.59V228.83C430.241 230.69 430.761 232.15 431.801 233.21C432.841 234.27 434.181 234.8 435.821 234.8ZM454.555 236.42C453.055 236.42 451.745 236.11 450.625 235.49C449.525 234.85 448.665 233.96 448.045 232.82C447.425 231.68 447.115 230.37 447.115 228.89V228.53C447.115 227.03 447.425 225.72 448.045 224.6C448.665 223.46 449.515 222.58 450.595 221.96C451.695 221.32 452.945 221 454.345 221C455.705 221 456.905 221.29 457.945 221.87C459.005 222.43 459.835 223.25 460.435 224.33C461.035 225.39 461.335 226.66 461.335 228.14V229.1H448.915C448.975 230.92 449.525 232.33 450.565 233.33C451.625 234.31 452.955 234.8 454.555 234.8C455.915 234.8 456.965 234.49 457.705 233.87C458.465 233.25 459.045 232.49 459.445 231.59L461.065 232.31C460.765 232.97 460.345 233.62 459.805 234.26C459.285 234.88 458.605 235.4 457.765 235.82C456.925 236.22 455.855 236.42 454.555 236.42ZM448.945 227.54H459.505C459.425 225.96 458.915 224.75 457.975 223.91C457.035 223.05 455.825 222.62 454.345 222.62C452.885 222.62 451.675 223.05 450.715 223.91C449.755 224.75 449.165 225.96 448.945 227.54ZM465.765 236V221.42H467.505V224.12H467.865C468.225 223.34 468.815 222.65 469.635 222.05C470.455 221.43 471.645 221.12 473.205 221.12C474.265 221.12 475.235 221.34 476.115 221.78C476.995 222.22 477.695 222.89 478.215 223.79C478.755 224.67 479.025 225.78 479.025 227.12V236H477.225V227.24C477.225 225.64 476.825 224.49 476.025 223.79C475.225 223.09 474.155 222.74 472.815 222.74C471.315 222.74 470.065 223.24 469.065 224.24C468.065 225.22 467.565 226.71 467.565 228.71V236H465.765ZM490.434 236.42C489.134 236.42 487.954 236.12 486.894 235.52C485.834 234.9 484.984 234.03 484.344 232.91C483.724 231.77 483.414 230.43 483.414 228.89V228.53C483.414 226.99 483.724 225.66 484.344 224.54C484.964 223.4 485.804 222.53 486.864 221.93C487.944 221.31 489.134 221 490.434 221C491.514 221 492.424 221.15 493.164 221.45C493.904 221.73 494.504 222.1 494.964 222.56C495.444 223 495.814 223.47 496.074 223.97H496.434V215H498.234V236H496.494V233.33H496.134C495.714 234.13 495.054 234.85 494.154 235.49C493.274 236.11 492.034 236.42 490.434 236.42ZM490.854 234.8C492.514 234.8 493.854 234.27 494.874 233.21C495.914 232.15 496.434 230.69 496.434 228.83V228.59C496.434 226.73 495.914 225.27 494.874 224.21C493.854 223.15 492.514 222.62 490.854 222.62C489.214 222.62 487.874 223.15 486.834 224.21C485.794 225.27 485.274 226.73 485.274 228.59V228.83C485.274 230.69 485.794 232.15 486.834 233.21C487.874 234.27 489.214 234.8 490.854 234.8ZM510.249 236.42C508.749 236.42 507.439 236.11 506.319 235.49C505.219 234.85 504.359 233.96 503.739 232.82C503.119 231.68 502.809 230.37 502.809 228.89V228.53C502.809 227.03 503.119 225.72 503.739 224.6C504.359 223.46 505.209 222.58 506.289 221.96C507.389 221.32 508.639 221 510.039 221C511.399 221 512.599 221.29 513.639 221.87C514.699 222.43 515.529 223.25 516.129 224.33C516.729 225.39 517.029 226.66 517.029 228.14V229.1H504.609C504.669 230.92 505.219 232.33 506.259 233.33C507.319 234.31 508.649 234.8 510.249 234.8C511.609 234.8 512.659 234.49 513.399 233.87C514.159 233.25 514.739 232.49 515.139 231.59L516.759 232.31C516.459 232.97 516.039 233.62 515.499 234.26C514.979 234.88 514.299 235.4 513.459 235.82C512.619 236.22 511.549 236.42 510.249 236.42ZM504.639 227.54H515.199C515.119 225.96 514.609 224.75 513.669 223.91C512.729 223.05 511.519 222.62 510.039 222.62C508.579 222.62 507.369 223.05 506.409 223.91C505.449 224.75 504.859 225.96 504.639 227.54ZM521.458 236V221.42H523.198V224.12H523.558C523.918 223.34 524.508 222.65 525.328 222.05C526.148 221.43 527.338 221.12 528.898 221.12C529.958 221.12 530.928 221.34 531.808 221.78C532.688 222.22 533.388 222.89 533.908 223.79C534.448 224.67 534.718 225.78 534.718 227.12V236H532.918V227.24C532.918 225.64 532.518 224.49 531.718 223.79C530.918 223.09 529.848 222.74 528.508 222.74C527.008 222.74 525.758 223.24 524.758 224.24C523.758 225.22 523.258 226.71 523.258 228.71V236H521.458ZM544.697 236C543.917 236 543.327 235.8 542.927 235.4C542.547 235 542.357 234.44 542.357 233.72V223.04H537.677V221.42H542.357V215.96H544.157V221.42H549.257V223.04H544.157V233.48C544.157 234.08 544.457 234.38 545.057 234.38H548.477V236H544.697ZM565.479 236.42C564.459 236.42 563.529 236.25 562.689 235.91C561.869 235.55 561.219 235.03 560.739 234.35C560.259 233.67 560.019 232.85 560.019 231.89C560.019 230.91 560.259 230.1 560.739 229.46C561.219 228.82 561.869 228.34 562.689 228.02C563.509 227.7 564.419 227.54 565.419 227.54H570.759V226.37C570.759 225.19 570.419 224.27 569.739 223.61C569.059 222.95 568.069 222.62 566.769 222.62C565.489 222.62 564.469 222.94 563.709 223.58C562.969 224.2 562.469 225.04 562.209 226.1L560.469 225.59C560.709 224.73 561.089 223.96 561.609 223.28C562.129 222.58 562.819 222.03 563.679 221.63C564.539 221.21 565.569 221 566.769 221C568.609 221 570.029 221.48 571.029 222.44C572.049 223.4 572.559 224.74 572.559 226.46V233.54C572.559 234.14 572.839 234.44 573.399 234.44H574.809V236H572.889C572.269 236 571.779 235.82 571.419 235.46C571.059 235.08 570.879 234.57 570.879 233.93V233.72H570.579C570.319 234.16 569.979 234.59 569.559 235.01C569.159 235.43 568.629 235.77 567.969 236.03C567.309 236.29 566.479 236.42 565.479 236.42ZM565.599 234.8C567.139 234.8 568.379 234.34 569.319 233.42C570.279 232.48 570.759 231.16 570.759 229.46V229.1H565.449C564.409 229.1 563.539 229.33 562.839 229.79C562.159 230.23 561.819 230.92 561.819 231.86C561.819 232.8 562.169 233.53 562.869 234.05C563.589 234.55 564.499 234.8 565.599 234.8ZM578.236 236V221.42H579.976V224.12H580.336C580.696 223.34 581.286 222.65 582.106 222.05C582.926 221.43 584.116 221.12 585.676 221.12C586.736 221.12 587.706 221.34 588.586 221.78C589.466 222.22 590.166 222.89 590.686 223.79C591.226 224.67 591.496 225.78 591.496 227.12V236H589.696V227.24C589.696 225.64 589.296 224.49 588.496 223.79C587.696 223.09 586.626 222.74 585.286 222.74C583.786 222.74 582.536 223.24 581.536 224.24C580.536 225.22 580.036 226.71 580.036 228.71V236H578.236ZM602.905 236.42C601.605 236.42 600.425 236.12 599.365 235.52C598.305 234.9 597.455 234.03 596.815 232.91C596.195 231.77 595.885 230.43 595.885 228.89V228.53C595.885 226.99 596.195 225.66 596.815 224.54C597.435 223.4 598.275 222.53 599.335 221.93C600.415 221.31 601.605 221 602.905 221C603.985 221 604.895 221.15 605.635 221.45C606.375 221.73 606.975 222.1 607.435 222.56C607.915 223 608.285 223.47 608.545 223.97H608.905V215H610.705V236H608.965V233.33H608.605C608.185 234.13 607.525 234.85 606.625 235.49C605.745 236.11 604.505 236.42 602.905 236.42ZM603.325 234.8C604.985 234.8 606.325 234.27 607.345 233.21C608.385 232.15 608.905 230.69 608.905 228.83V228.59C608.905 226.73 608.385 225.27 607.345 224.21C606.325 223.15 604.985 222.62 603.325 222.62C601.685 222.62 600.345 223.15 599.305 224.21C598.265 225.27 597.745 226.73 597.745 228.59V228.83C597.745 230.69 598.265 232.15 599.305 233.21C600.345 234.27 601.685 234.8 603.325 234.8ZM623.734 236V221.42H625.534V236H623.734ZM624.634 218.9C624.194 218.9 623.824 218.75 623.524 218.45C623.224 218.15 623.074 217.78 623.074 217.34C623.074 216.88 623.224 216.51 623.524 216.23C623.824 215.93 624.194 215.78 624.634 215.78C625.094 215.78 625.464 215.93 625.744 216.23C626.044 216.51 626.194 216.88 626.194 217.34C626.194 217.78 626.044 218.15 625.744 218.45C625.464 218.75 625.094 218.9 624.634 218.9ZM630.824 236V221.42H632.564V223.34H632.924C633.224 222.8 633.704 222.3 634.364 221.84C635.024 221.36 635.964 221.12 637.184 221.12C638.364 221.12 639.314 221.39 640.034 221.93C640.774 222.47 641.304 223.12 641.624 223.88H641.984C642.324 223.12 642.854 222.47 643.574 221.93C644.294 221.39 645.304 221.12 646.604 221.12C647.604 221.12 648.474 221.33 649.214 221.75C649.954 222.15 650.534 222.72 650.954 223.46C651.374 224.18 651.584 225.03 651.584 226.01V236H649.784V226.19C649.784 225.15 649.464 224.32 648.824 223.7C648.204 223.06 647.324 222.74 646.184 222.74C645.024 222.74 644.054 223.12 643.274 223.88C642.494 224.62 642.104 225.71 642.104 227.15V236H640.304V226.19C640.304 225.15 639.984 224.32 639.344 223.7C638.724 223.06 637.844 222.74 636.704 222.74C635.544 222.74 634.574 223.12 633.794 223.88C633.014 224.62 632.624 225.71 632.624 227.15V236H630.824ZM656.693 242V221.42H658.433V224.09H658.793C659.213 223.29 659.863 222.58 660.743 221.96C661.643 221.32 662.893 221 664.493 221C665.793 221 666.973 221.31 668.033 221.93C669.093 222.53 669.933 223.39 670.553 224.51C671.193 225.63 671.513 226.97 671.513 228.53V228.89C671.513 230.43 671.203 231.77 670.583 232.91C669.963 234.03 669.123 234.9 668.063 235.52C667.003 236.12 665.813 236.42 664.493 236.42C663.433 236.42 662.523 236.28 661.763 236C661.023 235.7 660.413 235.32 659.933 234.86C659.473 234.4 659.113 233.93 658.853 233.45H658.493V242H656.693ZM664.073 234.8C665.733 234.8 667.073 234.27 668.093 233.21C669.133 232.15 669.653 230.69 669.653 228.83V228.59C669.653 226.73 669.133 225.27 668.093 224.21C667.073 223.15 665.733 222.62 664.073 222.62C662.433 222.62 661.093 223.15 660.053 224.21C659.013 225.27 658.493 226.73 658.493 228.59V228.83C658.493 230.69 659.013 232.15 660.053 233.21C661.093 234.27 662.433 234.8 664.073 234.8ZM680.557 236.42C679.537 236.42 678.607 236.25 677.767 235.91C676.947 235.55 676.297 235.03 675.817 234.35C675.337 233.67 675.097 232.85 675.097 231.89C675.097 230.91 675.337 230.1 675.817 229.46C676.297 228.82 676.947 228.34 677.767 228.02C678.587 227.7 679.497 227.54 680.497 227.54H685.837V226.37C685.837 225.19 685.497 224.27 684.817 223.61C684.137 222.95 683.147 222.62 681.847 222.62C680.567 222.62 679.547 222.94 678.787 223.58C678.047 224.2 677.547 225.04 677.287 226.1L675.547 225.59C675.787 224.73 676.167 223.96 676.687 223.28C677.207 222.58 677.897 222.03 678.757 221.63C679.617 221.21 680.647 221 681.847 221C683.687 221 685.107 221.48 686.107 222.44C687.127 223.4 687.637 224.74 687.637 226.46V233.54C687.637 234.14 687.917 234.44 688.477 234.44H689.887V236H687.967C687.347 236 686.857 235.82 686.497 235.46C686.137 235.08 685.957 234.57 685.957 233.93V233.72H685.657C685.397 234.16 685.057 234.59 684.637 235.01C684.237 235.43 683.707 235.77 683.047 236.03C682.387 236.29 681.557 236.42 680.557 236.42ZM680.677 234.8C682.217 234.8 683.457 234.34 684.397 233.42C685.357 232.48 685.837 231.16 685.837 229.46V229.1H680.527C679.487 229.1 678.617 229.33 677.917 229.79C677.237 230.23 676.897 230.92 676.897 231.86C676.897 232.8 677.247 233.53 677.947 234.05C678.667 234.55 679.577 234.8 680.677 234.8ZM693.314 236V221.42H695.054V223.25H695.414C695.694 222.59 696.104 222.11 696.644 221.81C697.204 221.51 697.974 221.36 698.954 221.36H700.664V223.04H698.744C697.644 223.04 696.764 223.35 696.104 223.97C695.444 224.59 695.114 225.56 695.114 226.88V236H693.314ZM709.668 236C708.888 236 708.298 235.8 707.898 235.4C707.518 235 707.328 234.44 707.328 233.72V223.04H702.648V221.42H707.328V215.96H709.128V221.42H714.228V223.04H709.128V233.48C709.128 234.08 709.428 234.38 710.028 234.38H713.448V236H709.668ZM718.245 236V221.42H720.045V236H718.245ZM719.145 218.9C718.705 218.9 718.335 218.75 718.035 218.45C717.735 218.15 717.585 217.78 717.585 217.34C717.585 216.88 717.735 216.51 718.035 216.23C718.335 215.93 718.705 215.78 719.145 215.78C719.605 215.78 719.975 215.93 720.255 216.23C720.555 216.51 720.705 216.88 720.705 217.34C720.705 217.78 720.555 218.15 720.255 218.45C719.975 218.75 719.605 218.9 719.145 218.9ZM729.805 236.42C728.785 236.42 727.855 236.25 727.015 235.91C726.195 235.55 725.545 235.03 725.065 234.35C724.585 233.67 724.345 232.85 724.345 231.89C724.345 230.91 724.585 230.1 725.065 229.46C725.545 228.82 726.195 228.34 727.015 228.02C727.835 227.7 728.745 227.54 729.745 227.54H735.085V226.37C735.085 225.19 734.745 224.27 734.065 223.61C733.385 222.95 732.395 222.62 731.095 222.62C729.815 222.62 728.795 222.94 728.035 223.58C727.295 224.2 726.795 225.04 726.535 226.1L724.795 225.59C725.035 224.73 725.415 223.96 725.935 223.28C726.455 222.58 727.145 222.03 728.005 221.63C728.865 221.21 729.895 221 731.095 221C732.935 221 734.355 221.48 735.355 222.44C736.375 223.4 736.885 224.74 736.885 226.46V233.54C736.885 234.14 737.165 234.44 737.725 234.44H739.135V236H737.215C736.595 236 736.105 235.82 735.745 235.46C735.385 235.08 735.205 234.57 735.205 233.93V233.72H734.905C734.645 234.16 734.305 234.59 733.885 235.01C733.485 235.43 732.955 235.77 732.295 236.03C731.635 236.29 730.805 236.42 729.805 236.42ZM729.925 234.8C731.465 234.8 732.705 234.34 733.645 233.42C734.605 232.48 735.085 231.16 735.085 229.46V229.1H729.775C728.735 229.1 727.865 229.33 727.165 229.79C726.485 230.23 726.145 230.92 726.145 231.86C726.145 232.8 726.495 233.53 727.195 234.05C727.915 234.55 728.825 234.8 729.925 234.8ZM742.562 236V215H744.362V236H742.562ZM762.666 236C761.886 236 761.296 235.8 760.896 235.4C760.516 235 760.326 234.44 760.326 233.72V223.04H755.646V221.42H760.326V215.96H762.126V221.42H767.226V223.04H762.126V233.48C762.126 234.08 762.426 234.38 763.026 234.38H766.446V236H762.666ZM771.244 236V221.42H772.984V223.25H773.344C773.624 222.59 774.034 222.11 774.574 221.81C775.134 221.51 775.904 221.36 776.884 221.36H778.594V223.04H776.674C775.574 223.04 774.694 223.35 774.034 223.97C773.374 224.59 773.044 225.56 773.044 226.88V236H771.244ZM782.318 236V221.42H784.118V236H782.318ZM783.218 218.9C782.778 218.9 782.408 218.75 782.108 218.45C781.808 218.15 781.658 217.78 781.658 217.34C781.658 216.88 781.808 216.51 782.108 216.23C782.408 215.93 782.778 215.78 783.218 215.78C783.678 215.78 784.048 215.93 784.328 216.23C784.628 216.51 784.778 216.88 784.778 217.34C784.778 217.78 784.628 218.15 784.328 218.45C784.048 218.75 783.678 218.9 783.218 218.9ZM797.208 236.42C795.608 236.42 794.358 236.11 793.458 235.49C792.578 234.85 791.928 234.13 791.508 233.33H791.148V236H789.408V215H791.208V223.97H791.568C791.828 223.47 792.188 223 792.648 222.56C793.128 222.1 793.738 221.73 794.478 221.45C795.238 221.15 796.148 221 797.208 221C798.528 221 799.718 221.31 800.778 221.93C801.838 222.53 802.678 223.4 803.298 224.54C803.918 225.66 804.228 226.99 804.228 228.53V228.89C804.228 230.43 803.908 231.77 803.268 232.91C802.648 234.03 801.808 234.9 800.748 235.52C799.688 236.12 798.508 236.42 797.208 236.42ZM796.788 234.8C798.448 234.8 799.788 234.27 800.808 233.21C801.848 232.15 802.368 230.69 802.368 228.83V228.59C802.368 226.73 801.848 225.27 800.808 224.21C799.788 223.15 798.448 222.62 796.788 222.62C795.148 222.62 793.808 223.15 792.768 224.21C791.728 225.27 791.208 226.73 791.208 228.59V228.83C791.208 230.69 791.728 232.15 792.768 233.21C793.808 234.27 795.148 234.8 796.788 234.8ZM814.412 236.3C813.372 236.3 812.402 236.08 811.502 235.64C810.622 235.2 809.912 234.54 809.372 233.66C808.852 232.76 808.592 231.64 808.592 230.3V221.42H810.392V230.18C810.392 231.76 810.792 232.91 811.592 233.63C812.392 234.33 813.462 234.68 814.802 234.68C816.302 234.68 817.552 234.19 818.552 233.21C819.552 232.21 820.052 230.71 820.052 228.71V221.42H821.852V236H820.112V233.3H819.752C819.392 234.08 818.802 234.78 817.982 235.4C817.162 236 815.972 236.3 814.412 236.3ZM827.142 236V221.42H828.882V224.12H829.242C829.602 223.34 830.192 222.65 831.012 222.05C831.832 221.43 833.022 221.12 834.582 221.12C835.642 221.12 836.612 221.34 837.492 221.78C838.372 222.22 839.072 222.89 839.592 223.79C840.132 224.67 840.402 225.78 840.402 227.12V236H838.602V227.24C838.602 225.64 838.202 224.49 837.402 223.79C836.602 223.09 835.532 222.74 834.192 222.74C832.692 222.74 831.442 223.24 830.442 224.24C829.442 225.22 828.942 226.71 828.942 228.71V236H827.142ZM849.981 236.42C848.961 236.42 848.031 236.25 847.191 235.91C846.371 235.55 845.721 235.03 845.241 234.35C844.761 233.67 844.521 232.85 844.521 231.89C844.521 230.91 844.761 230.1 845.241 229.46C845.721 228.82 846.371 228.34 847.191 228.02C848.011 227.7 848.921 227.54 849.921 227.54H855.261V226.37C855.261 225.19 854.921 224.27 854.241 223.61C853.561 222.95 852.571 222.62 851.271 222.62C849.991 222.62 848.971 222.94 848.211 223.58C847.471 224.2 846.971 225.04 846.711 226.1L844.971 225.59C845.211 224.73 845.591 223.96 846.111 223.28C846.631 222.58 847.321 222.03 848.181 221.63C849.041 221.21 850.071 221 851.271 221C853.111 221 854.531 221.48 855.531 222.44C856.551 223.4 857.061 224.74 857.061 226.46V233.54C857.061 234.14 857.341 234.44 857.901 234.44H859.311V236H857.391C856.771 236 856.281 235.82 855.921 235.46C855.561 235.08 855.381 234.57 855.381 233.93V233.72H855.081C854.821 234.16 854.481 234.59 854.061 235.01C853.661 235.43 853.131 235.77 852.471 236.03C851.811 236.29 850.981 236.42 849.981 236.42ZM850.101 234.8C851.641 234.8 852.881 234.34 853.821 233.42C854.781 232.48 855.261 231.16 855.261 229.46V229.1H849.951C848.911 229.1 848.041 229.33 847.341 229.79C846.661 230.23 846.321 230.92 846.321 231.86C846.321 232.8 846.671 233.53 847.371 234.05C848.091 234.55 849.001 234.8 850.101 234.8ZM862.738 236V215H864.538V236H862.738ZM870.698 236.42C870.198 236.42 869.788 236.26 869.468 235.94C869.148 235.62 868.988 235.21 868.988 234.71C868.988 234.21 869.148 233.8 869.468 233.48C869.788 233.16 870.198 233 870.698 233C871.198 233 871.608 233.16 871.928 233.48C872.248 233.8 872.408 234.21 872.408 234.71C872.408 235.21 872.248 235.62 871.928 235.94C871.608 236.26 871.198 236.42 870.698 236.42Z" fill="black"/>
<path d="M480 0L480 295" stroke="#575757" stroke-width="0.8"/>
</svg>
