<svg width="18" height="14" viewBox="0 0 18 14" fill="none" xmlns="http://www.w3.org/2000/svg">
<path d="M17.6255 10.9381C17.5335 11.2629 17.4009 11.5638 17.1362 11.7898C16.9495 11.9494 16.7379 12.0559 16.4981 12.1091C16.4099 12.1287 16.3671 12.1059 16.3763 12.0086C16.3806 11.963 16.3768 11.9169 16.3768 11.8707C16.3768 9.5796 16.3752 7.28906 16.3779 4.99798C16.3785 4.40973 16.2172 3.8872 15.8036 3.45755C15.376 3.01378 14.8461 2.82639 14.2394 2.82639C12.3065 2.82748 10.3737 2.8253 8.44027 2.82965C8.31308 2.82965 8.23026 2.79326 8.15016 2.69386C7.86112 2.33645 7.55639 1.99208 7.26898 1.63305C7.05085 1.36038 6.77859 1.24143 6.43218 1.24251C4.98105 1.24794 3.52992 1.24469 2.07879 1.24469C1.86553 1.24469 1.86553 1.24414 1.92453 1.03339C2.09719 0.415811 2.64062 0.00789142 3.3486 0.00463241C5.00595 -0.00405828 6.66384 0.00245974 8.32174 0.000830236C8.46571 0.000830236 8.5691 0.0567766 8.66057 0.16704C9.01889 0.601574 9.38478 1.02959 9.74202 1.46467C9.81942 1.55864 9.90061 1.59014 10.0202 1.59014C12.0391 1.58634 14.0581 1.58742 16.077 1.58797C16.7081 1.58797 17.199 1.83348 17.4859 2.41793C17.5481 2.54449 17.5795 2.68625 17.6255 2.8215V10.9386V10.9381Z" fill="#2A2A2A"/>
<path d="M7.88448 14C5.7795 14 3.67452 14.0005 1.56954 13.9989C1.28159 13.9989 1.00013 13.963 0.741946 13.8136C0.284036 13.548 0.0410083 13.1499 0.00582611 12.6241C-0.00499918 12.4639 0.00257852 12.302 0.00257852 12.1407C0.00257852 9.21084 0.00203726 6.28099 0.00257852 3.35114C0.00257852 2.63687 0.394454 2.1024 1.0548 1.90903C1.19336 1.86829 1.33517 1.85471 1.47969 1.85471C3.13758 1.85471 4.79494 1.85634 6.45283 1.85254C6.60005 1.85254 6.70019 1.90414 6.79112 2.0144C7.14944 2.44839 7.51642 2.87587 7.87365 3.31149C7.95376 3.40926 8.03657 3.44728 8.16431 3.44674C10.1832 3.44239 12.2021 3.44348 14.2211 3.44348C15.1753 3.44348 15.7658 4.03553 15.7658 4.99096C15.7658 7.49497 15.7664 9.99843 15.7658 12.5024C15.7658 13.2287 15.3658 13.7588 14.6763 13.9494C14.5155 13.994 14.3488 13.9994 14.1826 14C12.0836 14 9.98404 14 7.88502 14H7.88448Z" fill="#2A2A2A"/>
</svg>
