<svg width="31" height="30" viewBox="0 0 31 30" fill="none" xmlns="http://www.w3.org/2000/svg">
<path d="M9.43141 4.71303C9.57937 2.95932 12.0528 1 15.4958 1C18.9388 1 21.7412 3.70054 21.877 7.08356C21.7969 7.10602 21.7168 7.13021 21.6367 7.15613C20.2425 7.60535 19.1111 8.48653 18.3417 9.60095C17.3478 11.0437 19.4888 12.5866 20.5628 11.2009C21.3913 10.1314 21.8839 8.79235 21.8839 7.341C21.8839 7.25461 21.8822 7.16822 21.8787 7.08356C25.1633 6.16092 28.6219 7.97683 29.6854 11.2268C30.749 14.4751 29.0292 17.9566 25.8299 19.1315M25.8299 19.1315C25.7829 19.0623 25.7359 18.995 25.6855 18.9258C24.8221 17.7458 23.6263 16.9493 22.3173 16.5691C20.6289 16.0784 19.8143 18.5751 21.4731 19.1608C22.7542 19.6135 24.1903 19.6653 25.5845 19.2161C25.6663 19.1902 25.7499 19.1608 25.8299 19.1315ZM25.8299 19.1315C27.7272 21.9478 27.0588 25.7731 24.2721 27.7825C21.4888 29.7902 17.6194 29.2425 15.5062 26.5852C15.5585 26.5195 15.6089 26.4538 15.6577 26.3865C16.5193 25.2081 16.9144 23.8345 16.8761 22.4834C16.8256 20.74 14.1799 20.74 14.1329 22.4834C14.0963 23.8328 14.4897 25.2029 15.3513 26.3795C15.4018 26.4487 15.454 26.5178 15.508 26.5852C13.3966 29.2477 9.52541 29.7971 6.73865 27.7894C3.95538 25.7817 3.28523 21.9599 5.1773 19.1453M5.1773 19.1453C5.25563 19.1747 5.33396 19.2023 5.41577 19.2282C6.81176 19.6774 8.24952 19.6256 9.53063 19.1712C11.1877 18.5837 10.3714 16.0871 8.68468 16.5795C7.37921 16.9613 6.18687 17.7579 5.32526 18.9345C5.27478 19.0036 5.2243 19.0744 5.1773 19.1453ZM5.1773 19.1453C1.97453 17.9704 0.249564 14.4854 1.31483 11.2354C2.37836 7.98719 6.27042 5.9674 9.58459 6.71554L9.6107 6.72072C11.461 7.12157 13.6907 8.50035 14.4932 10.5029C14.4932 10.5029 15.501 12.6678 15.501 16.0715" stroke="black" stroke-width="2" stroke-miterlimit="10" stroke-linecap="round"/>
</svg>
