<svg width="43" height="42" viewBox="0 0 43 42" fill="none" xmlns="http://www.w3.org/2000/svg">
<path d="M12.9203 6.30432C13.1295 3.79902 16.6264 1 21.494 1C26.3617 1 30.3237 4.85791 30.5157 9.6908C30.4025 9.72289 30.2893 9.75744 30.1761 9.79447C28.2049 10.4362 26.6053 11.695 25.5176 13.2871C24.1124 15.3481 27.1393 17.5523 28.6577 15.5727C29.8291 14.0448 30.5255 12.1319 30.5255 10.0586C30.5255 9.93516 30.5231 9.81174 30.5182 9.6908C35.1619 8.37274 40.0517 10.9669 41.5553 15.6097C43.0589 20.2501 40.6275 25.2237 36.1044 26.9021M36.1044 26.9021C36.0379 26.8034 35.9715 26.7071 35.9001 26.6084C34.6795 24.9225 32.9889 23.7847 31.1383 23.2416C28.7512 22.5406 27.5995 26.1073 29.9448 26.944C31.756 27.5907 33.7862 27.6648 35.7574 27.023C35.8731 26.986 35.9912 26.944 36.1044 26.9021ZM36.1044 26.9021C38.7868 30.9254 37.8418 36.3901 33.9019 39.2607C29.9669 42.1289 24.4963 41.3464 21.5088 37.5502C21.5826 37.4564 21.654 37.3626 21.7229 37.2664C22.9411 35.583 23.4997 33.6207 23.4455 31.6905C23.3742 29.2 19.6336 29.2 19.5672 31.6905C19.5155 33.6183 20.0716 35.5756 21.2898 37.2565C21.3612 37.3552 21.435 37.454 21.5113 37.5502C18.5262 41.3538 13.0532 42.1387 9.11327 39.2706C5.17829 36.4025 4.23085 30.9426 6.90584 26.9218M6.90584 26.9218C7.01658 26.9638 7.12732 27.0033 7.24298 27.0403C9.21662 27.6821 11.2493 27.608 13.0605 26.9589C15.4033 26.1196 14.2492 22.553 11.8646 23.2564C10.0189 23.8019 8.33316 24.9398 7.11502 26.6207C7.04365 26.7194 6.97229 26.8206 6.90584 26.9218ZM6.90584 26.9218C2.37779 25.2434 -0.0609609 20.2649 1.44511 15.6221C2.94872 10.9817 8.45129 8.09629 13.1368 9.16506L13.1737 9.17246C15.7897 9.7451 18.9421 11.7148 20.0766 14.5755C20.0766 14.5755 21.5014 17.6683 21.5014 22.5308" stroke="black" stroke-width="2" stroke-miterlimit="10"/>
</svg>
